<?xml version="1.0" encoding="utf-8"?>
<!-- Generator: Adobe Illustrator 19.0.1, SVG Export Plug-In . SVG Version: 6.00 Build 0)  -->
<svg version="1.1"
	 id="svg22880" xmlns:cc="http://creativecommons.org/ns#" xmlns:svg="http://www.w3.org/2000/svg" xmlns:rdf="http://www.w3.org/1999/02/22-rdf-syntax-ns#" xmlns:dc="http://purl.org/dc/elements/1.1/"
	 xmlns="http://www.w3.org/2000/svg" xmlns:xlink="http://www.w3.org/1999/xlink" x="0px" y="0px"
	 viewBox="-220.1 176.9 81.3 144.1" style="enable-background:new -220.1 176.9 81.3 144.1;" xml:space="preserve">
<style type="text/css">
	.st0{fill:#FFFFFF;}
</style>
<g>
	<path id="path7364" class="st0" d="M-179.4,220.9c-4.4,0-8-3.6-8-8s3.6-8,8-8s8,3.6,8,8C-171.5,217.3-175,220.9-179.4,220.9
		 M-179.5,176.9c-19.9,0-36,16.1-36,36s16.1,36,36,36s36-16.1,36-36C-143.5,193.1-159.6,176.9-179.5,176.9"/>
	<path id="path7368" class="st0" d="M-154,320.5l1.4-0.7c1.4-0.7,8.5-4.7,7.1-9.7c-1.1-3.8-5.9-5.4-5.9-5.4s-30-9-48.6-15.1
		c-19.3-6.3-19.9-20-20-22.5c-1.1-15.2,10.5-21.5,12-22.3l0.9-0.4l0.3,0.5l-0.6,0.3c-1,0.5-6.7,3.7-5.9,7.9c0.8,4,5.8,5.4,5.8,5.4
		s30,9,48.6,15.1c19.3,6.3,19.9,20,20,22.5c1.2,16.8-11.3,23.2-13.3,24.2l-1.5,0.7L-154,320.5z"/>
</g>
</svg>
