<?xml version="1.0" encoding="utf-8"?>
<!-- Generator: Adobe Illustrator 18.0.0, SVG Export Plug-In . SVG Version: 6.00 Build 0)  -->
<!DOCTYPE svg PUBLIC "-//W3C//DTD SVG 1.1//EN" "http://www.w3.org/Graphics/SVG/1.1/DTD/svg11.dtd">
<svg version="1.1" xmlns="http://www.w3.org/2000/svg" xmlns:xlink="http://www.w3.org/1999/xlink" x="0px" y="0px"
	 viewBox="0 0 374.6 458.8" enable-background="new 0 0 374.6 458.8" xml:space="preserve">
<g id="shadow">
	<g opacity="0.5">
		<path fill="#1F4216" d="M318.5,356.3c0,0.6-0.9,1.2-0.9,1.8c0,0.6,0.9,1.2,0.8,1.8c0,0.6-2.2,1-2.2,1.6c0,0.6,2.3,1.4,2.2,2
			c-0.1,0.6-1.1,1.1-1.2,1.6c-0.1,0.6,0.4,1.3,0.3,1.8c-0.1,0.6-3.2,0.6-3.3,1.2c-0.1,0.6,3,1.8,2.8,2.3c-0.1,0.6-1.3,0.9-1.5,1.5
			c-0.1,0.6,1.6,1.6,1.5,2.2c-0.2,0.6-2.6,0.5-2.8,1.1c-0.2,0.6,0.5,1.4,0.3,1.9c-0.2,0.6-0.8,1-1,1.5c-0.2,0.6,1.7,1.9,1.5,2.4
			c-0.2,0.5-2.4,0.4-2.6,0.9c-0.2,0.5,0.8,1.6,0.5,2.1c-0.2,0.5-2.7,0.1-3,0.6c-0.2,0.5,2.1,2.3,1.8,2.8c-0.3,0.5-3-0.2-3.3,0.3
			c-0.3,0.5,1.7,2.3,1.5,2.8c-0.3,0.5-2.4,0-2.7,0.5c-0.3,0.5-0.3,1.2-0.6,1.7c-0.3,0.5-1.6,0.4-1.9,0.9c-0.3,0.5,1.4,2.3,1.1,2.8
			c-0.3,0.5-2.9-0.6-3.3-0.1c-0.3,0.5,2.3,3.1,2,3.6c-0.3,0.5-2.6-0.5-3,0c-0.4,0.5,1,2.3,0.7,2.8c-0.4,0.5-3-0.9-3.4-0.5
			c-0.4,0.4,1.1,2.5,0.7,2.9c-0.4,0.4-3.4-1.4-3.8-1c-0.4,0.4,0.9,2.4,0.5,2.8c-0.4,0.4-1.7,0-2.1,0.4c-0.4,0.4,1.1,2.7,0.7,3.1
			c-0.4,0.4-2.7-1.1-3.2-0.7c-0.4,0.4,1.2,2.9,0.8,3.3c-0.4,0.4-2.9-1.4-3.3-1c-0.4,0.4,0.8,2.6,0.4,3c-0.4,0.4-2.1-0.7-2.6-0.3
			c-0.4,0.4,0,1.8-0.5,2.2c-0.4,0.4-1.3,0.2-1.8,0.6c-0.5,0.4-0.7,1-1.2,1.4c-0.5,0.4-1.5,0-2,0.3c-0.5,0.3,0.2,2.3-0.2,2.6
			c-0.5,0.3-3.2-2.5-3.7-2.2c-0.5,0.3,0.7,3.1,0.3,3.4c-0.5,0.3-1.9-0.8-2.4-0.5c-0.5,0.3,0.6,3.1,0.1,3.4c-0.5,0.3-2.4-1.6-2.9-1.3
			c-0.5,0.3,0.2,2.5-0.3,2.8c-0.5,0.3-2.4-1.7-2.9-1.4c-0.5,0.3,0.8,3.7,0.3,4c-0.5,0.3-3-3-3.5-2.7c-0.5,0.3,0.7,3.7,0.2,3.9
			c-0.5,0.3-2.3-1.9-2.8-1.6c-0.5,0.3-0.5,1.6-1,1.8c-0.5,0.3-2-1.3-2.5-1.1c-0.5,0.3-0.3,2.1-0.8,2.4c-0.5,0.2-0.9,0.9-1.4,1.1
			c-0.5,0.2-0.4,1.9-1,2.2c-0.5,0.2-1.8-1.2-2.3-0.9c-0.5,0.2-0.2,2.4-0.8,2.7c-0.5,0.2-2.4-2.6-2.9-2.4c-0.5,0.2,0.2,3.6-0.4,3.8
			c-0.5,0.2-2.2-2.4-2.7-2.2c-0.5,0.2-0.5,2.1-1,2.3c-0.5,0.2-2.1-2.3-2.6-2.1c-0.5,0.2-0.1,3.3-0.6,3.5c-0.6,0.2-1.7-1.4-2.3-1.2
			c-0.6,0.2-0.4,2.4-1,2.6c-0.6,0.2-2.2-3.1-2.7-2.9c-0.6,0.2-0.5,2.5-1,2.6c-0.6,0.2-1.2,0-1.8,0.2c-0.6,0.2-0.5,2.8-1,2.9
			c-0.6,0.2-1.8-2.2-2.4-2.1c-0.6,0.1-1,0.7-1.6,0.8c-0.6,0.1-1.7-2.1-2.3-1.9c-0.6,0.1-0.5,2.9-1.1,3c-0.6,0.1-1.5-1.5-2.1-1.4
			c-0.6,0.1-0.6,3-1.1,3.1c-0.6,0.1-1.8-3.3-2.4-3.2c-0.6,0.1-0.3,4.6-0.9,4.7c-0.6,0.1-1.9-3.7-2.4-3.6c-0.6,0.1-0.7,2.7-1.3,2.8
			c-0.6,0.1-1.4-1.1-1.9-1c-0.6,0.1-1.1,0.8-1.6,0.8c-0.6,0.1-1.1,0.2-1.7,0.3c-0.6,0.1-1.1,0.7-1.7,0.7c-0.6,0.1-1.4-2.2-2-2.2
			c-0.6,0.1-1,1.9-1.5,1.9c-0.6,0.1-1.1,0.4-1.7,0.5c-0.6,0.1-1.2-0.5-1.8-0.4c-0.6,0-1.3-1.8-1.9-1.7c-0.6,0-1,2.1-1.6,2.2
			c-0.6,0-1.2-0.2-1.8-0.2c-0.6,0-1.2,0.3-1.7,0.3c-0.6,0-1.2-1.4-1.8-1.4c-0.6,0-1.1,3.7-1.6,3.7c-0.6,0-1.3-3.6-1.8-3.5
			c-0.6,0-1.1,1.3-1.7,1.3c-0.6,0-1.2-0.7-1.8-0.7c-0.6,0-1.2,3.2-1.8,3.2c-0.6,0-1.1-2.9-1.7-2.9c-0.6,0-1.2,1.9-1.8,1.9
			c-0.6,0-1.1-1.3-1.7-1.3c-0.6,0-1.2,1.6-1.8,1.6c-0.6,0-1.1-1.8-1.7-1.9c-0.6,0-1.2,0-1.8-0.1c-0.6,0-1.1-1.1-1.7-1.2
			c-0.6,0-1.3,1.9-1.9,1.8c-0.6,0-1-2.4-1.5-2.4c-0.6-0.1-1.3,1.3-1.9,1.2c-0.6-0.1-1-1.8-1.6-1.8c-0.6-0.1-1.6,3.4-2.2,3.4
			c-0.6-0.1-0.9-2.6-1.4-2.7c-0.6-0.1-1.3,0.9-1.9,0.8c-0.6-0.1-1-1.3-1.6-1.4c-0.6-0.1-1.5,2-2.1,1.9c-0.6-0.1-0.6-3.6-1.2-3.7
			c-0.6-0.1-1.6,2.2-2.1,2.1c-0.6-0.1-1-1.2-1.5-1.3c-0.6-0.1-1.4,0.9-2,0.8c-0.6-0.1-0.6-2.8-1.2-2.9c-0.6-0.1-1.7,2.4-2.3,2.3
			c-0.6-0.1-0.7-2-1.3-2.1c-0.6-0.1-1.6,1.5-2.1,1.3c-0.6-0.1-0.5-2.7-1.1-2.8c-0.6-0.1-1.5,1.2-2.1,1.1c-0.6-0.2-1.2-0.1-1.7-0.3
			c-0.6-0.2-1.6,1.2-2.1,1c-0.6-0.2-0.1-3.7-0.7-3.8c-0.6-0.2-1.7,1.6-2.3,1.4c-0.6-0.2-1.1-0.4-1.6-0.6c-0.6-0.2-1-0.6-1.6-0.8
			c-0.6-0.2-1.1-0.5-1.6-0.7c-0.6-0.2-1.2-0.2-1.7-0.4c-0.5-0.2-0.3-2.6-0.8-2.8c-0.5-0.2-2,1.8-2.5,1.6c-0.5-0.2-0.6-1.6-1.2-1.8
			c-0.5-0.2-2.3,2.4-2.8,2.2c-0.5-0.2,0-2.9-0.6-3.1c-0.5-0.2-2,1.7-2.6,1.5c-0.5-0.2,0.5-3.8-0.1-4.1c-0.5-0.2-2.2,1.9-2.7,1.7
			c-0.5-0.3-0.3-2.1-0.8-2.4c-0.5-0.3-2.3,1.9-2.8,1.6c-0.5-0.3,0-2.5-0.5-2.8c-0.5-0.3-1.7,0.8-2.3,0.5c-0.5-0.3,0.5-3.2-0.1-3.5
			c-0.5-0.3-3.1,3.1-3.6,2.8c-0.5-0.3,0.6-3.3,0.1-3.6c-0.5-0.3-2,1.1-2.5,0.8c-0.5-0.3-0.5-1.4-1-1.7c-0.5-0.3-1.7,0.5-2.2,0.2
			c-0.5-0.3,0.8-3.4,0.3-3.7c-0.5-0.3-3,2.4-3.5,2.1c-0.5-0.3,0.9-3.3,0.4-3.6c-0.5-0.3-2.2,1-2.7,0.7c-0.5-0.3,0.6-2.8,0.1-3.1
			c-0.5-0.4-3.4,2.5-3.8,2.1c-0.5-0.4,0.1-2.1-0.3-2.5c-0.5-0.4-1.1-0.6-1.5-0.9c-0.5-0.4,0.1-2-0.3-2.3c-0.4-0.4-2.9,1.6-3.3,1.2
			c-0.4-0.4,1.7-3.7,1.3-4.1c-0.4-0.4-2.6,1-3,0.7c-0.4-0.4,0.1-1.7-0.4-2.2c-0.4-0.4-1.2-0.4-1.6-0.8c-0.4-0.4-0.9-0.8-1.3-1.2
			c-0.4-0.4-0.8-0.9-1.2-1.3c-0.4-0.4,0.2-1.7-0.2-2.1c-0.4-0.4-2.4,0.6-2.8,0.1c-0.4-0.4,1.1-2.4,0.7-2.9c-0.4-0.5-3.6,1.4-4,1
			c-0.4-0.5,2.5-3.4,2.1-3.9c-0.4-0.5-3.7,1.3-4,0.8c-0.3-0.5,2.5-3.2,2.2-3.7c-0.3-0.5-3.2,0.8-3.5,0.3c-0.3-0.5,1.4-2.3,1.1-2.8
			c-0.3-0.5-2.4,0.1-2.7-0.3c-0.3-0.5,0.9-1.9,0.6-2.4c-0.3-0.5-3.6,0.7-3.9,0.2c-0.3-0.5,1.8-2.3,1.5-2.8c-0.3-0.5-0.8-0.9-1-1.4
			c-0.3-0.5-0.4-1.1-0.7-1.6c-0.2-0.5-2.3-0.3-2.5-0.8c-0.2-0.5,1.6-2,1.4-2.5c-0.2-0.5-1.1-0.8-1.3-1.4c-0.2-0.5-0.3-1.2-0.4-1.7
			c-0.2-0.6-2.4-0.5-2.5-1c-0.2-0.6,3.7-2.3,3.5-2.9c-0.2-0.6-2.7-0.4-2.8-1c-0.2-0.6,0.4-1.3,0.3-1.9c-0.1-0.6-0.5-1.1-0.6-1.6
			c-0.1-0.6-0.4-1.1-0.5-1.7c-0.1-0.6-0.6-1.1-0.7-1.7c-0.1-0.6,0-1.2,0-1.8c-0.1-0.6,0.2-1.2,0.2-1.8c-0.1-0.6-0.6-1.1-0.7-1.7
			c0-0.6-2.1-1.1-2.2-1.6c0-0.6,4.1-1.3,4.1-1.9c0-0.6-3.7-1.1-3.7-1.7c0-0.6,2.7-1.1,2.7-1.7c0-0.6-1.5-1.2-1.5-1.8
			c0-0.6,1.2-1.1,1.3-1.7c0-0.6-1.5-1.3-1.5-1.9c0.1-0.6,2.1-0.9,2.1-1.5c0.1-0.6-2.3-1.5-2.2-2.1c0.1-0.6,3-0.7,3.2-1.2
			c0.1-0.6-1.5-1.5-1.3-2c0.1-0.6,2.8-0.5,3-1.1c0.1-0.6-1.7-1.6-1.6-2.2c0.2-0.6,0.4-1.1,0.6-1.6c0.2-0.6,0-1.2,0.2-1.8
			c0.2-0.6,0.8-0.9,1-1.5c0.2-0.6-1.8-1.9-1.6-2.5c0.2-0.5,2.3-0.4,2.6-0.9c0.2-0.5-0.3-1.4,0-1.9c0.2-0.5,0.9-0.9,1.1-1.4
			c0.2-0.5-0.5-1.5-0.2-2.1c0.3-0.5,3.1,0.3,3.4-0.2c0.3-0.5-1-1.8-0.7-2.4c0.3-0.5,1.1-0.7,1.4-1.2c0.3-0.5,0-1.4,0.3-1.9
			c0.3-0.5,1.6-0.4,1.9-0.9c0.3-0.5-1.9-2.6-1.5-3.1c0.3-0.5,3.3,0.8,3.6,0.4c0.3-0.5-0.7-1.9-0.3-2.4c0.3-0.5,1.8-0.1,2.2-0.6
			c0.4-0.5-0.3-1.7,0-2.2c0.4-0.5,1.7-0.1,2.1-0.6c0.4-0.4-0.9-2.3-0.5-2.7c0.4-0.4,1.9,0.1,2.3-0.3c0.4-0.4,0.8-0.9,1.2-1.3
			c0.4-0.4,1.7,0,2.1-0.4c0.4-0.4-1.9-3.4-1.4-3.9c0.4-0.4,2.7,1.1,3.1,0.7c0.4-0.4,0.4-1.3,0.8-1.7c0.4-0.4,1.8,0.2,2.2-0.2
			c0.4-0.4-1.4-3.3-1-3.7c0.4-0.4,3.9,2.7,4.3,2.3c0.4-0.4-0.4-2.3,0.1-2.6c0.4-0.4,0.8-0.8,1.3-1.2c0.5-0.4,0-1.9,0.5-2.2
			c0.5-0.4,1.8,0.4,2.2,0c0.5-0.3-0.1-2.1,0.4-2.4c0.5-0.3,2.9,2.1,3.4,1.7c0.5-0.3-1-3.5-0.5-3.8c0.5-0.3,2.6,1.7,3,1.4
			c0.5-0.3-0.2-2.4,0.3-2.7c0.5-0.3,1.9,0.8,2.4,0.5c0.5-0.3-0.4-2.8,0.1-3.1c0.5-0.3,2.8,2.5,3.3,2.2c0.5-0.3-0.1-2.4,0.4-2.7
			c0.5-0.3,1.7,0.7,2.2,0.4c0.5-0.3,0.5-1.4,1-1.7c0.5-0.3,0.9-0.9,1.4-1.1c0.5-0.3,0.8-1,1.3-1.2c0.5-0.3,1.5,0.4,2,0.2
			c0.5-0.3,0.1-2.4,0.7-2.7c0.5-0.2,1.7,1,2.3,0.7c0.5-0.2,1-0.7,1.5-1c0.5-0.2,1.2-0.1,1.8-0.3c0.5-0.2,0.3-2.3,0.8-2.5
			c0.5-0.2,2.2,2.2,2.7,1.9c0.5-0.2,0-3.2,0.5-3.4c0.5-0.2,2.4,3,2.9,2.8c0.5-0.2,0.5-2,1.1-2.2c0.5-0.2,1.3,0.1,1.8-0.1
			c0.5-0.2,0.8-1.3,1.3-1.5c0.6-0.2,1.6,1,2.1,0.8c0.6-0.2,0.7-1.5,1.3-1.7c0.6-0.2,1.6,1.4,2.2,1.2c0.6-0.2,0.3-3.1,0.9-3.2
			c0.6-0.2,1.8,2,2.3,1.8c0.6-0.2,0.7-1.7,1.3-1.8c0.6-0.2,1.4,0.8,2,0.7c0.6-0.1,0.7-2.2,1.2-2.3c0.6-0.1,1.8,2.3,2.3,2.2
			c0.6-0.1,0.6-2.7,1.1-2.9c0.6-0.1,1.5,1.2,2,1c0.6-0.1,1-0.8,1.6-0.9c0.6-0.1,1.6,2,2.2,1.9c0.6-0.1,0.4-4.1,1-4.2
			c0.6-0.1,1.6,2.2,2.2,2.1c0.6-0.1,0.7-2.8,1.3-2.9c0.6-0.1,1.7,3.1,2.3,3c0.6-0.1,1-1.3,1.6-1.4c0.6-0.1,1.3,1.1,1.9,1
			c0.6-0.1,1-1.6,1.5-1.7c0.6-0.1,1.3,1.5,1.9,1.5c0.6-0.1,0.8-3.6,1.4-3.6c0.6-0.1,1.5,3.1,2.1,3c0.6-0.1,0.9-3.5,1.4-3.5
			c0.6,0,1.3,1.5,1.9,1.5c0.6,0,1.1-1.1,1.7-1.2c0.6,0,1.4,3.1,1.9,3.1c0.6,0,1-3.8,1.6-3.9c0.6,0,1.3,3.6,1.9,3.5
			c0.6,0,1.1-2.5,1.7-2.6c0.6,0,1.2,1.9,1.8,1.8c0.6,0,1.1-1.1,1.7-1.1c0.6,0,1.2,1.6,1.8,1.6c0.6,0,1.2-2.1,1.8-2.1
			c0.6,0,1.2,1.2,1.7,1.3c0.6,0,1.2-1.7,1.8-1.7c0.6,0,1.1,2.7,1.7,2.7c0.6,0,1.2-1.5,1.8-1.4c0.6,0,1.1,0.7,1.7,0.7
			c0.6,0,1.3-1.9,1.9-1.8c0.6,0,0.9,3.1,1.5,3.2c0.6,0,1.3-2.1,1.9-2.1c0.6,0,0.9,2.5,1.5,2.6c0.6,0.1,1.4-2.3,2-2.2
			c0.6,0.1,1,1.6,1.6,1.7c0.6,0.1,1.4-2.2,2-2.2c0.6,0.1,0.8,3,1.4,3c0.6,0.1,1.7-3.4,2.2-3.3c0.6,0.1,0.7,3.2,1.3,3.3
			c0.6,0.1,1.6-2.5,2.2-2.4c0.6,0.1,0.6,3.6,1.2,3.7c0.6,0.1,1.6-2.2,2.1-2.1c0.6,0.1,1.1,0.6,1.7,0.7c0.6,0.1,1.2-0.2,1.8-0.1
			c0.6,0.1,0.9,1.2,1.5,1.4c0.6,0.1,1.7-2.4,2.3-2.2c0.6,0.1,0.1,4.7,0.7,4.8c0.6,0.1,1.7-2,2.2-1.9c0.6,0.1,1,1,1.5,1.1
			c0.6,0.1,1.8-2.1,2.3-2c0.6,0.2,0.3,3.4,0.8,3.6c0.6,0.2,1.5-0.9,2-0.7c0.6,0.2,0.9,1.2,1.4,1.4c0.6,0.2,2.1-2.8,2.6-2.6
			c0.6,0.2-0.2,4.4,0.3,4.6c0.6,0.2,2-2.4,2.6-2.3c0.6,0.2,0.6,1.9,1.1,2.1c0.6,0.2,1.9-1.7,2.4-1.5c0.5,0.2,0.6,1.7,1.2,1.9
			c0.5,0.2,1.9-1.6,2.4-1.4c0.5,0.2-0.4,4.3,0.1,4.5c0.5,0.2,2.4-2.8,2.9-2.5c0.5,0.2,0.4,2.2,0.9,2.4c0.5,0.2,1.4-0.3,1.9-0.1
			c0.5,0.2-0.1,3,0.4,3.3c0.5,0.2,2.8-3.3,3.4-3c0.5,0.3-0.7,4.2-0.2,4.4c0.5,0.3,2.7-2.9,3.2-2.6c0.5,0.3-0.4,3.3,0.2,3.5
			c0.5,0.3,1.6-0.5,2.1-0.2c0.5,0.3,0.6,1.2,1.2,1.5c0.5,0.3,2.4-2,3-1.7c0.5,0.3-0.9,3.9-0.4,4.2c0.5,0.3,2.8-2.5,3.3-2.2
			c0.5,0.3-0.8,3.6-0.3,3.9c0.5,0.3,2-0.9,2.5-0.6c0.5,0.3,0.6,1.2,1.1,1.6c0.5,0.3,2-0.8,2.5-0.5c0.5,0.3,0.3,1.7,0.7,2
			c0.5,0.3,2.1-1,2.6-0.6c0.5,0.3-0.2,2.2,0.3,2.6c0.5,0.4,1,0.6,1.5,0.9c0.5,0.4-0.4,2.4,0,2.8c0.5,0.4,2-0.6,2.4-0.3
			c0.5,0.4,0.9,0.8,1.3,1.2c0.4,0.4,1,0.7,1.4,1.1c0.4,0.4-0.3,2,0.2,2.4c0.4,0.4,3.6-2.2,4-1.8c0.4,0.4-0.7,2.5-0.3,2.9
			c0.4,0.4,1.6,0.1,2,0.5c0.4,0.4-1,2.6-0.6,3c0.4,0.4,2.4-0.7,2.8-0.3c0.4,0.4-1.4,2.8-1,3.2c0.4,0.4,3.8-1.7,4.1-1.3
			c0.4,0.4-0.7,2.1-0.3,2.6c0.4,0.5,0.9,0.7,1.3,1.2c0.4,0.5,0.9,0.8,1.2,1.3c0.4,0.5,1.4,0.4,1.8,0.9c0.3,0.5-1,2.2-0.7,2.6
			c0.3,0.5,2.3-0.1,2.6,0.3c0.3,0.5-0.9,2-0.6,2.5c0.3,0.5,3.2-0.6,3.5-0.1c0.3,0.5-1.1,2-0.8,2.5c0.3,0.5,0.5,1.1,0.8,1.6
			c0.3,0.5,0,1.3,0.3,1.8c0.3,0.5,1.3,0.7,1.5,1.2c0.3,0.5-1,1.7-0.7,2.3c0.2,0.5,2.1,0.3,2.4,0.8c0.2,0.5,0.1,1.2,0.3,1.8
			c0.2,0.5,0.4,1.1,0.6,1.6c0.2,0.5,0.3,1.1,0.5,1.7c0.2,0.6,0.3,1.1,0.5,1.7c0.2,0.6,0.2,1.2,0.3,1.7c0.2,0.6,1.8,0.7,2,1.3
			c0.2,0.6-2.8,1.9-2.7,2.5c0.1,0.6,3.7,0.3,3.9,0.9c0.1,0.6-1.9,1.6-1.8,2.2c0.1,0.6,1.3,1,1.4,1.5c0.1,0.6-1.9,1.4-1.9,2
			c0.1,0.6,1.5,1,1.6,1.5c0.1,0.6,0.1,1.2,0.1,1.7c0,0.6,1.2,1.1,1.3,1.7c0,0.6-2.1,1.2-2,1.8C316.3,355.1,318.5,355.7,318.5,356.3z
			"/>
	</g>
	<g opacity="0.5">
		<path fill="#1F4216" d="M303.4,282.5c0-0.4,1.9-1,1.9-1.4c0-0.4-2.6-0.6-2.7-1c-0.1-0.4,1.7-1.2,1.6-1.6c-0.1-0.4-1-0.7-1.1-1.1
			c-0.1-0.4,0.9-1.3,0.7-1.7c-0.2-0.4-2-0.1-2.2-0.5c-0.2-0.4,1.7-1.9,1.5-2.3c-0.2-0.4-3.7,1.2-4,0.8c-0.2-0.4,2.6-2.8,2.4-3.1
			c-0.2-0.4-3.5,1.5-3.8,1.2c-0.3-0.3,2.4-3.1,2.1-3.4c-0.3-0.3-2.6,1.1-2.9,0.8c-0.3-0.3,1.5-2.6,1.2-3c-0.3-0.3-3.1,1.9-3.4,1.6
			c-0.3-0.3,0.8-2.2,0.5-2.5c-0.3-0.3-1.9,0.8-2.2,0.6c-0.3-0.3,1.4-3.1,1-3.3c-0.3-0.3-2.8,2.2-3.2,2c-0.3-0.3,0.2-1.7-0.2-2
			c-0.4-0.3-1.6,0.8-2,0.6c-0.4-0.2,0.9-2.9,0.5-3.2c-0.4-0.2-1.9,1.3-2.3,1.1c-0.4-0.2,0.7-2.8,0.3-3.1c-0.4-0.2-2.6,2.8-3,2.6
			c-0.4-0.2,0.8-3.2,0.4-3.4c-0.4-0.2-1.4,0.7-1.8,0.5c-0.4-0.2-0.7-0.6-1.1-0.8c-0.4-0.2-1.7,1.5-2.1,1.3c-0.4-0.2,0.2-2.5-0.1-2.7
			c-0.4-0.2-1.5,1.1-1.9,1c-0.4-0.2,0-2.1-0.4-2.3c-0.4-0.2-1.3,0.7-1.7,0.5c-0.4-0.2-0.6-0.8-1-1c-0.4-0.2-1.1,0.4-1.5,0.2
			c-0.4-0.2-0.2-1.9-0.6-2c-0.4-0.2-1.5,1.5-1.9,1.4c-0.4-0.2-0.3-1.7-0.7-1.8c-0.4-0.2-1,0.2-1.4,0c-0.4-0.1-0.2-1.9-0.7-2.1
			c-0.4-0.1-1.4,1.4-1.8,1.2c-0.4-0.1-0.3-2-0.7-2.1c-0.4-0.1-1.5,1.9-2,1.7c-0.4-0.1-0.3-1.8-0.8-2c-0.4-0.1-1.7,2.5-2.1,2.4
			c-0.4-0.1-0.3-2.1-0.7-2.2c-0.4-0.1-1.3,1.3-1.7,1.1c-0.4-0.1-0.1-2.9-0.5-3c-0.4-0.1-1.3,1.3-1.7,1.2c-0.4-0.1-0.3-2.3-0.7-2.4
			c-0.4-0.1-1.6,2.8-2.1,2.7c-0.4-0.1-0.6-1.4-1-1.5c-0.4-0.1-1.3,1.6-1.7,1.5c-0.4-0.1-0.2-2.8-0.7-2.9c-0.4-0.1-1.1,0.7-1.5,0.6
			c-0.4-0.1-0.6-1.5-1-1.6c-0.4-0.1-1.2,1.5-1.7,1.4c-0.4-0.1-0.7-0.7-1.2-0.8c-0.4-0.1-0.9-0.1-1.3-0.1c-0.4-0.1-0.4-2.2-0.9-2.3
			c-0.4-0.1-1.2,1.5-1.6,1.4c-0.4-0.1-0.6-1.5-1-1.6c-0.4-0.1-1.4,3-1.9,2.9c-0.4-0.1-0.5-2.3-0.9-2.4c-0.4-0.1-1.2,1.6-1.6,1.5
			c-0.4-0.1-0.5-2.2-1-2.3c-0.4-0.1-1.1,1.4-1.6,1.4c-0.4-0.1-0.6-1.6-1.1-1.6c-0.4-0.1-1.2,2.4-1.7,2.3c-0.4-0.1-0.5-2.8-0.9-2.9
			c-0.4-0.1-1.2,2.4-1.7,2.3c-0.4-0.1-0.6-1.8-1.1-1.9c-0.4-0.1-0.9-0.1-1.3-0.1c-0.4-0.1-0.8-0.6-1.2-0.7c-0.4-0.1-1,1-1.4,0.9
			c-0.4-0.1-0.7-1.4-1.2-1.4c-0.4,0-1.2,2.8-1.6,2.7c-0.4,0-0.5-3.3-1-3.3c-0.4,0-1,0.9-1.4,0.8c-0.4,0-0.8-1.1-1.2-1.1
			c-0.4,0-1,1.5-1.5,1.4c-0.4,0-0.7-1.9-1.2-1.9c-0.4,0-1,1.6-1.5,1.6c-0.4,0-0.8-0.8-1.3-0.8c-0.4,0-0.9,0.4-1.4,0.4
			c-0.4,0-0.8-1.5-1.2-1.5c-0.4,0-1.1,3.1-1.5,3.1c-0.4,0-0.7-2.7-1.2-2.7c-0.4,0-1,1.2-1.4,1.2c-0.4,0-0.8-1.9-1.2-1.9
			c-0.4,0-1,1.4-1.4,1.4c-0.4,0-0.8-1-1.3-1c-0.4,0-0.9,0.7-1.4,0.7c-0.4,0-0.8-2.2-1.3-2.2c-0.4,0-1,4.1-1.5,4.1
			c-0.4,0-0.8-2.7-1.3-2.7c-0.4,0-0.9,1.5-1.4,1.5c-0.4,0-0.8-2.7-1.3-2.7c-0.4,0-0.9,3.3-1.4,3.3c-0.4,0-0.9-2.2-1.3-2.2
			s-0.9,0.7-1.3,0.7c-0.4,0-0.9-0.6-1.3-0.6c-0.4,0-0.9,0.6-1.3,0.6c-0.4,0-0.9-1.9-1.3-1.9c-0.4,0-0.9,2.6-1.3,2.6
			c-0.4,0-0.9-2.4-1.4-2.4c-0.4,0-0.8,3.1-1.3,3.1c-0.4,0-0.9-1.4-1.4-1.4c-0.4,0-0.8,2.3-1.3,2.3c-0.4,0-1-2.8-1.4-2.8
			c-0.4,0-0.8,2.3-1.2,2.3c-0.4,0-1-2.3-1.4-2.3c-0.4,0-0.8,1.2-1.3,1.2c-0.4,0-1-1.9-1.4-1.9c-0.4,0-0.8,1.8-1.2,1.8
			c-0.4,0-1-1.2-1.4-1.1c-0.4,0-0.8,1-1.3,1c-0.4,0-0.9-0.7-1.4-0.7c-0.4,0-0.8,0.8-1.3,0.8c-0.4,0-1-1.6-1.4-1.6
			c-0.4,0-0.7,2.2-1.2,2.2c-0.4,0-1-1.5-1.4-1.4c-0.4,0-0.6,2.7-1.1,2.8c-0.4,0-1.1-2.6-1.6-2.6c-0.4,0-0.7,1.8-1.1,1.9
			c-0.4,0-1.1-2-1.5-2c-0.4,0-0.7,2-1.1,2.1c-0.4,0-1.1-2-1.5-1.9c-0.4,0-0.6,2.9-1,2.9c-0.4,0.1-1-1-1.4-0.9
			c-0.4,0.1-0.8,0.7-1.2,0.8c-0.4,0.1-0.9-0.3-1.4-0.3c-0.4,0.1-0.8,0.5-1.3,0.5c-0.4,0.1-1.2-2.4-1.7-2.3c-0.4,0.1-0.5,2.4-1,2.5
			c-0.4,0.1-1.2-2-1.6-2c-0.4,0.1-0.5,2.6-0.9,2.6c-0.4,0.1-1-0.8-1.5-0.7c-0.4,0.1-0.5,2.5-0.9,2.6c-0.4,0.1-1.5-3.2-1.9-3.2
			c-0.4,0.1-0.6,1.6-1,1.7c-0.4,0.1-1.2-1.8-1.7-1.7c-0.4,0.1-0.5,2.2-0.9,2.3c-0.4,0.1-1-0.5-1.4-0.4c-0.4,0.1-0.7,1-1.1,1
			c-0.4,0.1-0.9,0.1-1.3,0.2c-0.4,0.1-0.5,1.8-0.9,1.9c-0.4,0.1-1.2-1.5-1.7-1.4c-0.4,0.1-0.8,0.6-1.2,0.7c-0.4,0.1-1.5-2.4-1.9-2.3
			c-0.4,0.1-0.2,3-0.6,3.1c-0.4,0.1-1-0.6-1.5-0.5c-0.4,0.1-0.8,0.3-1.3,0.4c-0.4,0.1-1.2-1.2-1.7-1.1c-0.4,0.1-0.4,2-0.8,2.1
			c-0.4,0.1-1.3-1.5-1.8-1.4c-0.4,0.1,0,3.4-0.4,3.5c-0.4,0.1-1.9-3.4-2.3-3.2c-0.4,0.1-0.3,2.2-0.7,2.4c-0.4,0.1-1.3-1.3-1.7-1.1
			c-0.4,0.1-0.3,1.9-0.8,2c-0.4,0.1-1.1-0.5-1.5-0.4c-0.4,0.1-0.6,0.9-1,1.1c-0.4,0.1-0.9,0.2-1.3,0.3c-0.4,0.1-0.3,1.7-0.7,1.9
			c-0.4,0.2-1.6-1.9-2.1-1.8c-0.4,0.2-0.1,2.3-0.5,2.5c-0.4,0.2-1.8-2.1-2.2-2c-0.4,0.2,0.3,3.2-0.1,3.4c-0.4,0.2-1.5-1.2-1.9-1.1
			c-0.4,0.2-0.3,1.5-0.7,1.7c-0.4,0.2-1.6-1.3-2-1.2c-0.4,0.2,0.1,2.3-0.3,2.5c-0.4,0.2-1.7-1.5-2.1-1.3c-0.4,0.2-0.6,0.8-1,1
			c-0.4,0.2-0.8,0.4-1.2,0.6c-0.4,0.2,0,1.9-0.4,2.1c-0.4,0.2-2.5-2.8-2.9-2.6c-0.4,0.2,0.9,3.3,0.5,3.6c-0.4,0.2-1.6-1-1.9-0.7
			c-0.4,0.2,0.2,1.9-0.2,2.2c-0.4,0.2-1.7-1.1-2.1-0.9c-0.4,0.2-0.2,1.3-0.6,1.5c-0.4,0.3-2.3-1.7-2.6-1.4c-0.4,0.3,1.5,3.6,1.2,3.9
			c-0.4,0.3-3.1-2.5-3.4-2.2c-0.3,0.3,1.1,2.8,0.8,3.1c-0.3,0.3-2.3-1.2-2.6-1c-0.3,0.3,1,2.4,0.7,2.7c-0.3,0.3-2.6-1.3-2.9-1
			c-0.3,0.3,2,3.1,1.7,3.5c-0.3,0.3-2.7-1.2-2.9-0.8c-0.3,0.3,1.1,2,0.9,2.4c-0.3,0.4-1.6-0.1-1.8,0.3c-0.3,0.4,1.5,2,1.2,2.3
			c-0.2,0.4-3.1-0.8-3.3-0.5c-0.2,0.4,2,2,1.9,2.4c-0.2,0.4-3.5-0.6-3.7-0.2c-0.2,0.4,2,1.7,1.8,2.1c-0.1,0.4-1.5,0.5-1.6,0.9
			c-0.1,0.4,1.4,1.1,1.3,1.6c-0.1,0.4-1.1,0.7-1.1,1.1c0,0.4,0.3,0.9,0.3,1.3c0,0.4-1,0.9-0.9,1.4c0,0.4,1.8,0.6,1.9,1.1
			c0.1,0.4-2.3,1.4-2.2,1.8c0.1,0.4,3,0.1,3.2,0.5c0.1,0.4-1.4,1.4-1.2,1.8c0.2,0.4,1.5,0.3,1.7,0.7c0.2,0.4-1,1.5-0.8,1.8
			c0.2,0.4,2.5-0.5,2.7-0.1c0.2,0.4-2,2.3-1.7,2.7c0.2,0.4,1.8-0.2,2,0.2c0.3,0.3-0.2,1.3,0.1,1.6c0.3,0.3,1.5-0.2,1.8,0.1
			c0.3,0.3-1.6,2.7-1.3,3.1c0.3,0.3,3.3-2.1,3.6-1.8c0.3,0.3-0.5,1.8-0.1,2c0.3,0.3,1.3-0.2,1.7,0.1c0.3,0.3-0.5,2-0.1,2.2
			c0.3,0.3,1.9-1.1,2.3-0.8c0.3,0.3-0.6,2.2-0.2,2.5c0.4,0.3,1.9-1.2,2.3-0.9c0.4,0.2-0.8,2.7-0.4,3c0.4,0.2,1.9-1.3,2.3-1.1
			c0.4,0.2-0.3,2.2,0,2.5c0.4,0.2,2.1-1.9,2.5-1.7c0.4,0.2-0.3,2.2,0.1,2.5c0.4,0.2,1.3-0.5,1.7-0.3c0.4,0.2-0.3,2.6,0,2.8
			c0.4,0.2,2.6-3.2,3-3c0.4,0.2-0.8,3.6-0.4,3.8c0.4,0.2,2.2-2.5,2.6-2.3c0.4,0.2-0.3,2.7,0.1,2.9c0.4,0.2,1.3-0.8,1.7-0.6
			c0.4,0.2,0.5,1,0.9,1.2c0.4,0.2,1.2-0.7,1.6-0.5c0.4,0.2,0.6,0.8,1,1c0.4,0.2,1.4-1.3,1.8-1.1c0.4,0.2-0.4,3.4,0.1,3.5
			c0.4,0.2,1.7-2,2.1-1.9c0.4,0.1,0.3,1.8,0.7,1.9c0.4,0.1,1.6-2,2-1.9c0.4,0.1-0.2,3.3,0.2,3.4c0.4,0.1,1.5-1.7,1.9-1.5
			c0.4,0.1,0,2.8,0.5,2.9c0.4,0.1,1.3-1.4,1.8-1.2c0.4,0.1,0.7,0.7,1.1,0.9c0.4,0.1,1.1-0.5,1.5-0.4c0.4,0.1,0.3,2.3,0.7,2.5
			c0.4,0.1,1.3-1.5,1.8-1.4c0.4,0.1,0.8,0.3,1.2,0.4c0.4,0.1,1.1-0.7,1.5-0.6c0.4,0.1,0.7,0.8,1.1,0.9c0.4,0.1,1-0.4,1.4-0.3
			c0.4,0.1,0.6,1.3,1,1.4c0.4,0.1,0.9-0.1,1.4,0c0.4,0.1,0.7,0.7,1.2,0.8c0.4,0.1,1.4-2.1,1.8-2c0.4,0.1,0.5,2,0.9,2.1
			c0.4,0.1,1.2-1.4,1.6-1.3c0.4,0.1,0.2,3.5,0.6,3.5c0.4,0.1,1.6-3.8,2.1-3.7c0.4,0.1,0.2,3.7,0.6,3.8c0.4,0.1,1.2-1.9,1.7-1.8
			c0.4,0.1,0.7,1.3,1.1,1.3c0.4,0.1,1.2-1.6,1.6-1.5c0.4,0.1,0.7,1.3,1.1,1.4c0.4,0.1,1.2-1.8,1.6-1.7c0.4,0.1,0.4,3.4,0.8,3.4
			c0.4,0.1,1.1-1.6,1.6-1.5c0.4,0.1,0.6,2.3,1,2.3c0.4,0.1,1.2-2.1,1.6-2c0.4,0.1,0.5,2.7,1,2.8c0.4,0.1,1.3-3.1,1.7-3
			c0.4,0.1,0.5,2.7,1,2.8c0.4,0.1,1.1-1.6,1.5-1.5c0.4,0.1,0.8,0.4,1.3,0.5c0.4,0,1-0.7,1.4-0.7c0.4,0,0.8,1,1.2,1.1
			c0.4,0,1-1.4,1.5-1.3c0.4,0,0.7,1.6,1.2,1.7c0.4,0,1.1-2.2,1.5-2.2c0.4,0,0.7,2.4,1.1,2.4c0.4,0,1-1.4,1.4-1.3
			c0.4,0,0.7,1.8,1.2,1.8c0.4,0,1-1.2,1.4-1.1c0.4,0,0.8,0.6,1.3,0.6c0.4,0,0.9-1,1.4-1c0.4,0,0.8,1.7,1.2,1.7
			c0.4,0,0.9-0.2,1.3-0.1c0.4,0,0.8,0.6,1.3,0.7c0.4,0,0.9-0.7,1.4-0.7c0.4,0,0.8,1.1,1.3,1.1c0.4,0,1-2.7,1.4-2.7
			c0.4,0,0.8,2.5,1.2,2.5c0.4,0,1-2.8,1.4-2.8c0.4,0,0.8,3.4,1.2,3.4c0.4,0,0.9-2.9,1.4-2.9c0.4,0,0.8,2.9,1.3,2.9
			c0.4,0,0.9-2.2,1.4-2.2c0.4,0,0.9,1.5,1.3,1.5c0.4,0,0.9-1.8,1.3-1.8c0.4,0,0.9,3.3,1.3,3.3c0.4,0,0.9-2.9,1.3-2.9
			c0.4,0,0.9,1.5,1.3,1.5c0.4,0,0.9-0.6,1.3-0.6c0.4,0,0.9,1.9,1.4,1.9c0.4,0,0.8-2.1,1.3-2.1c0.4,0,0.9,2.2,1.4,2.1
			c0.4,0,0.8-3,1.2-3c0.4,0,0.9,1,1.4,1c0.4,0,0.8-1.3,1.3-1.3c0.4,0,1,3,1.4,3c0.4,0,0.8-2.8,1.2-2.8c0.4,0,1,1.9,1.4,1.8
			c0.4,0,0.8-1.8,1.2-1.8c0.4,0,1,2.4,1.5,2.4c0.4,0,0.8-1.9,1.2-1.9c0.4,0,1,1.1,1.4,1.1c0.4,0,0.7-2.6,1.1-2.6
			c0.4,0,1.1,3.3,1.6,3.3c0.4,0,0.6-3.4,1.1-3.5c0.4,0,1.2,3.5,1.6,3.4c0.4,0,0.6-3.1,1-3.2c0.4,0,1.1,2.5,1.6,2.4
			c0.4,0,0.5-3.8,1-3.9c0.4,0,1.3,4.2,1.7,4.1c0.4,0,0.5-3.8,0.9-3.9c0.4,0,1.1,1.9,1.5,1.9c0.4,0,0.7-1.8,1.1-1.9
			c0.4-0.1,1.1,1.7,1.5,1.6c0.4-0.1,0.8-0.7,1.2-0.8c0.4-0.1,0.9,0.4,1.4,0.3c0.4-0.1,0.7-1.6,1.1-1.7c0.4-0.1,1.2,2.3,1.7,2.3
			c0.4-0.1,0.4-3.2,0.9-3.3c0.4-0.1,1.2,2.1,1.6,2c0.4-0.1,0.7-0.9,1.2-1c0.4-0.1,1.1,1.5,1.6,1.5c0.4-0.1,0.3-3.6,0.7-3.7
			c0.4-0.1,1.2,2,1.7,2c0.4-0.1,0.6-1.6,1-1.7c0.4-0.1,1.3,2.4,1.8,2.4c0.4-0.1,0.6-1.6,1-1.7c0.4-0.1,1,0.6,1.4,0.5
			c0.4-0.1,0.5-2,0.9-2.1c0.4-0.1,1.3,2,1.7,1.9c0.4-0.1,0.6-1.3,1-1.4c0.4-0.1,1.4,2.1,1.8,2c0.4-0.1,0-3.8,0.5-3.9
			c0.4-0.1,1.7,3.5,2.1,3.4c0.4-0.1,0-3.8,0.4-3.9c0.4-0.1,1.3,1.6,1.7,1.5c0.4-0.1,0.7-0.9,1.1-1c0.4-0.1,1.4,2,1.9,1.9
			c0.4-0.1,0.3-2.2,0.8-2.3c0.4-0.1,1.1,0.7,1.5,0.6c0.4-0.1,0.3-2.1,0.7-2.2c0.4-0.1,1.2,1.1,1.7,1c0.4-0.1,0.3-2,0.7-2.1
			c0.4-0.1,1.5,1.8,1.9,1.7c0.4-0.1,0.5-1.4,0.9-1.5c0.4-0.1,1.3,1.1,1.7,0.9c0.4-0.1,0.3-1.8,0.7-1.9c0.4-0.1,1.2,0.8,1.6,0.6
			c0.4-0.1,0.4-1.6,0.8-1.8c0.4-0.2,1.8,2.4,2.2,2.2c0.4-0.2,0-2.4,0.4-2.6c0.4-0.2,1.7,1.8,2.1,1.7c0.4-0.2-0.7-4-0.3-4.2
			c0.4-0.2,2.1,2.7,2.5,2.5c0.4-0.2,0-2.3,0.4-2.5c0.4-0.2,1.6,1.5,2,1.3c0.4-0.2-0.2-2.6,0.2-2.8c0.4-0.2,2.1,2.3,2.5,2.1
			c0.4-0.2,0.1-1.8,0.5-2c0.4-0.2,1.3,0.6,1.7,0.4c0.4-0.2-0.1-2,0.3-2.2c0.4-0.2,1.8,1.4,2.1,1.2c0.4-0.2-0.2-2.2,0.1-2.4
			c0.4-0.2,1.3,0.5,1.7,0.3c0.4-0.2-0.3-2.1,0.1-2.4c0.4-0.2,1.9,1.4,2.3,1.1c0.4-0.2-0.4-2.2-0.1-2.5c0.4-0.3,2.4,1.9,2.7,1.6
			c0.4-0.3-1.3-3.3-1-3.5c0.4-0.3,2.4,1.7,2.8,1.5c0.3-0.3-0.2-1.7,0.1-1.9c0.3-0.3,1.6,0.5,1.9,0.2c0.3-0.3-1.2-2.6-0.9-2.9
			c0.3-0.3,2.9,1.7,3.2,1.4c0.3-0.3-0.7-1.9-0.4-2.3c0.3-0.3,2.1,0.6,2.4,0.3c0.3-0.3-1.3-2.2-1-2.5c0.3-0.4,3,1.1,3.2,0.7
			c0.3-0.4-2.2-2.6-2-2.9c0.2-0.4,2.3,0.3,2.5,0c0.2-0.4-2.2-2.1-2-2.5c0.2-0.4,3.2,0.5,3.4,0.1c0.2-0.4-2.6-1.8-2.5-2.3
			c0.1-0.4,4.1,0.2,4.2-0.2c0.1-0.4-3.6-1.6-3.6-2.1c0.1-0.4,3.3-0.5,3.3-0.9C305.1,283.5,303.4,283,303.4,282.5z"/>
	</g>
	<path opacity="0.5" fill="#1F4216" d="M287.6,257.2c0,0,52.8-2.3,69-26s2-61.5-3.5-83.3s-7-37.4-32.3-49.8
		c-3.3-1.6-8.6-3.7-8.6-3.7s0.8-8.3-1.5-12.5c-3.8-7.1-8.5-9.4-8.5-9.4s6.8-7.9,6.8-12.9s-4.3-17.3-17.3-17.3s-16,14.8-16,14.8
		l-3.1-0.3C272.6,35.5,256,35.8,256,35.8c-8.8-0.3-13.5,5-13.5,5s-6-10.7-16.3-11s-13.3,5-13.3,5c-1.8-7-8.5-12.5-15-12.7
		c-7.2-0.3-13.5,1.5-16.3,7.8c-3.7,8.2,0.8,18.7,0.8,18.7l-4.8,1.5c0-4-1.3-19-17.8-19s-15.8,21-15.8,21h-4.8c1-17.8-7-27.7-21.1-28
		S96.8,37.3,96.8,37.3s-3.3-5.7-14-5.3c-19.2,0.9-18,21-18,21c-24.5-0.2-24.5,24.7-24.5,24.7C40,87.5,52.8,98,52.8,98
		c-25.5,11.8-26.8,28-32.3,49.8S0.8,207.3,17,231s69,26,69,26L287.6,257.2z"/>
</g>
<g id="body">
	<g>
		<path fill="#1F4216" d="M319,344.3c0,0.6-0.9,1.2-0.9,1.8c0,0.6,0.9,1.2,0.8,1.8c0,0.6-2.2,1-2.2,1.6c0,0.6,2.3,1.4,2.2,2
			c-0.1,0.6-1.1,1.1-1.2,1.6c-0.1,0.6,0.4,1.3,0.3,1.8c-0.1,0.6-3.2,0.6-3.3,1.2c-0.1,0.6,3,1.8,2.8,2.3c-0.1,0.6-1.3,0.9-1.5,1.5
			c-0.1,0.6,1.6,1.6,1.5,2.2c-0.2,0.6-2.6,0.5-2.8,1.1c-0.2,0.6,0.5,1.4,0.3,1.9c-0.2,0.6-0.8,1-1,1.5c-0.2,0.6,1.7,1.9,1.5,2.4
			c-0.2,0.5-2.4,0.4-2.6,0.9c-0.2,0.5,0.8,1.6,0.5,2.1c-0.2,0.5-2.7,0.1-3,0.6c-0.2,0.5,2.1,2.3,1.8,2.8c-0.3,0.5-3-0.2-3.3,0.3
			c-0.3,0.5,1.7,2.3,1.5,2.8c-0.3,0.5-2.4,0-2.7,0.5c-0.3,0.5-0.3,1.2-0.6,1.7c-0.3,0.5-1.6,0.4-1.9,0.9c-0.3,0.5,1.4,2.3,1.1,2.8
			c-0.3,0.5-2.9-0.6-3.3-0.1c-0.3,0.5,2.3,3.1,2,3.6c-0.3,0.5-2.6-0.5-3,0c-0.4,0.5,1,2.3,0.7,2.8c-0.4,0.5-3-0.9-3.4-0.5
			c-0.4,0.4,1.1,2.5,0.7,2.9c-0.4,0.4-3.4-1.4-3.8-1c-0.4,0.4,0.9,2.4,0.5,2.8c-0.4,0.4-1.7,0-2.1,0.4c-0.4,0.4,1.1,2.7,0.7,3.1
			c-0.4,0.4-2.7-1.1-3.2-0.7c-0.4,0.4,1.2,2.9,0.8,3.3c-0.4,0.4-2.9-1.4-3.3-1c-0.4,0.4,0.8,2.6,0.4,3c-0.4,0.4-2.1-0.7-2.6-0.3
			c-0.4,0.4,0,1.8-0.5,2.2c-0.4,0.4-1.3,0.2-1.8,0.6c-0.5,0.4-0.7,1-1.2,1.4c-0.5,0.4-1.5,0-2,0.3c-0.5,0.3,0.2,2.3-0.2,2.6
			c-0.5,0.3-3.2-2.5-3.7-2.2c-0.5,0.3,0.7,3.1,0.3,3.4c-0.5,0.3-1.9-0.8-2.4-0.5c-0.5,0.3,0.6,3.1,0.1,3.4c-0.5,0.3-2.4-1.6-2.9-1.3
			c-0.5,0.3,0.2,2.5-0.3,2.8c-0.5,0.3-2.4-1.7-2.9-1.4c-0.5,0.3,0.8,3.7,0.3,4c-0.5,0.3-3-3-3.5-2.7c-0.5,0.3,0.7,3.7,0.2,3.9
			c-0.5,0.3-2.3-1.9-2.8-1.6c-0.5,0.3-0.5,1.6-1,1.8c-0.5,0.3-2-1.3-2.5-1.1c-0.5,0.3-0.3,2.1-0.8,2.4c-0.5,0.2-0.9,0.9-1.4,1.1
			c-0.5,0.2-0.4,1.9-1,2.2c-0.5,0.2-1.8-1.2-2.3-0.9c-0.5,0.2-0.2,2.4-0.8,2.7c-0.5,0.2-2.4-2.6-2.9-2.4c-0.5,0.2,0.2,3.6-0.4,3.8
			c-0.5,0.2-2.2-2.4-2.7-2.2c-0.5,0.2-0.5,2.1-1,2.3c-0.5,0.2-2.1-2.3-2.6-2.1c-0.5,0.2-0.1,3.3-0.6,3.5c-0.6,0.2-1.7-1.4-2.3-1.2
			c-0.6,0.2-0.4,2.4-1,2.6c-0.6,0.2-2.2-3.1-2.7-2.9c-0.6,0.2-0.5,2.5-1,2.6c-0.6,0.2-1.2,0-1.8,0.2c-0.6,0.2-0.5,2.8-1,2.9
			c-0.6,0.2-1.8-2.2-2.4-2.1c-0.6,0.1-1,0.7-1.6,0.8c-0.6,0.1-1.7-2.1-2.3-1.9c-0.6,0.1-0.5,2.9-1.1,3c-0.6,0.1-1.5-1.5-2.1-1.4
			c-0.6,0.1-0.6,3-1.1,3.1c-0.6,0.1-1.8-3.3-2.4-3.2c-0.6,0.1-0.3,4.6-0.9,4.7c-0.6,0.1-1.9-3.7-2.4-3.6c-0.6,0.1-0.7,2.7-1.3,2.8
			c-0.6,0.1-1.4-1.1-1.9-1c-0.6,0.1-1.1,0.8-1.6,0.8c-0.6,0.1-1.1,0.2-1.7,0.3c-0.6,0.1-1.1,0.7-1.7,0.7c-0.6,0.1-1.4-2.2-2-2.2
			c-0.6,0.1-1,1.9-1.5,1.9c-0.6,0.1-1.1,0.4-1.7,0.5c-0.6,0.1-1.2-0.5-1.8-0.4c-0.6,0-1.3-1.8-1.9-1.7c-0.6,0-1,2.1-1.6,2.2
			c-0.6,0-1.2-0.2-1.8-0.2c-0.6,0-1.2,0.3-1.7,0.3c-0.6,0-1.2-1.4-1.8-1.4c-0.6,0-1.1,3.7-1.6,3.7c-0.6,0-1.3-3.6-1.8-3.5
			c-0.6,0-1.1,1.3-1.7,1.3c-0.6,0-1.2-0.7-1.8-0.7c-0.6,0-1.2,3.2-1.8,3.2c-0.6,0-1.1-2.9-1.7-2.9c-0.6,0-1.2,1.9-1.8,1.9
			c-0.6,0-1.1-1.3-1.7-1.3c-0.6,0-1.2,1.6-1.8,1.6c-0.6,0-1.1-1.8-1.7-1.9c-0.6,0-1.2,0-1.8-0.1c-0.6,0-1.1-1.1-1.7-1.2
			c-0.6,0-1.3,1.9-1.9,1.8c-0.6,0-1-2.4-1.5-2.4c-0.6-0.1-1.3,1.3-1.9,1.2c-0.6-0.1-1-1.8-1.6-1.8c-0.6-0.1-1.6,3.4-2.2,3.4
			c-0.6-0.1-0.9-2.6-1.4-2.7c-0.6-0.1-1.3,0.9-1.9,0.8c-0.6-0.1-1-1.3-1.6-1.4c-0.6-0.1-1.5,2-2.1,1.9c-0.6-0.1-0.6-3.6-1.2-3.7
			c-0.6-0.1-1.6,2.2-2.1,2.1c-0.6-0.1-1-1.2-1.5-1.3c-0.6-0.1-1.4,0.9-2,0.8c-0.6-0.1-0.6-2.8-1.2-2.9c-0.6-0.1-1.7,2.4-2.3,2.3
			c-0.6-0.1-0.7-2-1.3-2.1c-0.6-0.1-1.6,1.5-2.1,1.3c-0.6-0.1-0.5-2.7-1.1-2.8c-0.6-0.1-1.5,1.2-2.1,1.1c-0.6-0.2-1.2-0.1-1.7-0.3
			c-0.6-0.2-1.6,1.2-2.1,1c-0.6-0.2-0.1-3.7-0.7-3.8c-0.6-0.2-1.7,1.6-2.3,1.4c-0.6-0.2-1.1-0.4-1.6-0.6c-0.6-0.2-1-0.6-1.6-0.8
			c-0.6-0.2-1.1-0.5-1.6-0.7c-0.6-0.2-1.2-0.2-1.7-0.4c-0.5-0.2-0.3-2.6-0.8-2.8c-0.5-0.2-2,1.8-2.5,1.6c-0.5-0.2-0.6-1.6-1.2-1.8
			c-0.5-0.2-2.3,2.4-2.8,2.2c-0.5-0.2,0-2.9-0.6-3.1c-0.5-0.2-2,1.7-2.6,1.5c-0.5-0.2,0.5-3.8-0.1-4.1c-0.5-0.2-2.2,1.9-2.7,1.7
			c-0.5-0.3-0.3-2.1-0.8-2.4c-0.5-0.3-2.3,1.9-2.8,1.6c-0.5-0.3,0-2.5-0.5-2.8c-0.5-0.3-1.7,0.8-2.3,0.5c-0.5-0.3,0.5-3.2-0.1-3.5
			c-0.5-0.3-3.1,3.1-3.6,2.8c-0.5-0.3,0.6-3.3,0.1-3.6c-0.5-0.3-2,1.1-2.5,0.8c-0.5-0.3-0.5-1.4-1-1.7c-0.5-0.3-1.7,0.5-2.2,0.2
			c-0.5-0.3,0.8-3.4,0.3-3.7c-0.5-0.3-3,2.4-3.5,2.1c-0.5-0.3,0.9-3.3,0.4-3.6c-0.5-0.3-2.2,1-2.7,0.7c-0.5-0.3,0.6-2.8,0.1-3.1
			c-0.5-0.4-3.4,2.5-3.8,2.1c-0.5-0.4,0.1-2.1-0.3-2.5c-0.5-0.4-1.1-0.6-1.5-0.9c-0.5-0.4,0.1-2-0.3-2.3c-0.4-0.4-2.9,1.6-3.3,1.2
			c-0.4-0.4,1.7-3.7,1.3-4.1c-0.4-0.4-2.6,1-3,0.7c-0.4-0.4,0.1-1.7-0.4-2.2c-0.4-0.4-1.2-0.4-1.6-0.8c-0.4-0.4-0.9-0.8-1.3-1.2
			c-0.4-0.4-0.8-0.9-1.2-1.3c-0.4-0.4,0.2-1.7-0.2-2.1c-0.4-0.4-2.4,0.6-2.8,0.1c-0.4-0.4,1.1-2.4,0.7-2.9c-0.4-0.5-3.6,1.4-4,1
			c-0.4-0.5,2.5-3.4,2.1-3.9c-0.4-0.5-3.7,1.3-4,0.8c-0.3-0.5,2.5-3.2,2.2-3.7c-0.3-0.5-3.2,0.8-3.5,0.3c-0.3-0.5,1.4-2.3,1.1-2.8
			c-0.3-0.5-2.4,0.1-2.7-0.3c-0.3-0.5,0.9-1.9,0.6-2.4c-0.3-0.5-3.6,0.7-3.9,0.2c-0.3-0.5,1.8-2.3,1.5-2.8c-0.3-0.5-0.8-0.9-1-1.4
			c-0.3-0.5-0.4-1.1-0.7-1.6c-0.2-0.5-2.3-0.3-2.5-0.8c-0.2-0.5,1.6-2,1.4-2.5c-0.2-0.5-1.1-0.8-1.3-1.4c-0.2-0.5-0.3-1.2-0.4-1.7
			c-0.2-0.6-2.4-0.5-2.5-1c-0.2-0.6,3.7-2.3,3.5-2.9c-0.2-0.6-2.7-0.4-2.8-1c-0.2-0.6,0.4-1.3,0.3-1.9c-0.1-0.6-0.5-1.1-0.6-1.6
			c-0.1-0.6-0.4-1.1-0.5-1.7c-0.1-0.6-0.6-1.1-0.7-1.7c-0.1-0.6,0-1.2,0-1.8c-0.1-0.6,0.2-1.2,0.2-1.8c-0.1-0.6-0.6-1.1-0.7-1.7
			c0-0.6-2.1-1.1-2.2-1.6c0-0.6,4.1-1.3,4.1-1.9c0-0.6-3.7-1.1-3.7-1.7c0-0.6,2.7-1.1,2.7-1.7c0-0.6-1.5-1.2-1.5-1.8
			c0-0.6,1.2-1.1,1.3-1.7c0-0.6-1.5-1.3-1.5-1.9c0.1-0.6,2.1-0.9,2.1-1.5c0.1-0.6-2.3-1.5-2.2-2.1c0.1-0.6,3-0.7,3.2-1.2
			c0.1-0.6-1.5-1.5-1.3-2c0.1-0.6,2.8-0.5,3-1.1c0.1-0.6-1.7-1.6-1.6-2.2c0.2-0.6,0.4-1.1,0.6-1.6c0.2-0.6,0-1.2,0.2-1.8
			c0.2-0.6,0.8-0.9,1-1.5c0.2-0.6-1.8-1.9-1.6-2.5c0.2-0.5,2.3-0.4,2.6-0.9c0.2-0.5-0.3-1.4,0-1.9c0.2-0.5,0.9-0.9,1.1-1.4
			c0.2-0.5-0.5-1.5-0.2-2.1c0.3-0.5,3.1,0.3,3.4-0.2c0.3-0.5-1-1.8-0.7-2.4c0.3-0.5,1.1-0.7,1.4-1.2c0.3-0.5,0-1.4,0.3-1.9
			c0.3-0.5,1.6-0.4,1.9-0.9c0.3-0.5-1.9-2.6-1.5-3.1c0.3-0.5,3.3,0.8,3.6,0.4c0.3-0.5-0.7-1.9-0.3-2.4c0.3-0.5,1.8-0.1,2.2-0.6
			c0.4-0.5-0.3-1.7,0-2.2c0.4-0.5,1.7-0.1,2.1-0.6c0.4-0.4-0.9-2.3-0.5-2.7c0.4-0.4,1.9,0.1,2.3-0.3c0.4-0.4,0.8-0.9,1.2-1.3
			c0.4-0.4,1.7,0,2.1-0.4c0.4-0.4-1.9-3.4-1.4-3.9c0.4-0.4,2.7,1.1,3.1,0.7c0.4-0.4,0.4-1.3,0.8-1.7c0.4-0.4,1.8,0.2,2.2-0.2
			c0.4-0.4-1.4-3.3-1-3.7c0.4-0.4,3.9,2.7,4.3,2.3c0.4-0.4-0.4-2.3,0.1-2.6c0.4-0.4,0.8-0.8,1.3-1.2c0.5-0.4,0-1.9,0.5-2.2
			c0.5-0.4,1.8,0.4,2.2,0c0.5-0.3-0.1-2.1,0.4-2.4c0.5-0.3,2.9,2.1,3.4,1.7c0.5-0.3-1-3.5-0.5-3.8c0.5-0.3,2.6,1.7,3,1.4
			c0.5-0.3-0.2-2.4,0.3-2.7c0.5-0.3,1.9,0.8,2.4,0.5c0.5-0.3-0.4-2.8,0.1-3.1c0.5-0.3,2.8,2.5,3.3,2.2c0.5-0.3-0.1-2.4,0.4-2.7
			c0.5-0.3,1.7,0.7,2.2,0.4c0.5-0.3,0.5-1.4,1-1.7c0.5-0.3,0.9-0.9,1.4-1.1c0.5-0.3,0.8-1,1.3-1.2c0.5-0.3,1.5,0.4,2,0.2
			c0.5-0.3,0.1-2.4,0.7-2.7c0.5-0.2,1.7,1,2.3,0.7c0.5-0.2,1-0.7,1.5-1c0.5-0.2,1.2-0.1,1.8-0.3c0.5-0.2,0.3-2.3,0.8-2.5
			c0.5-0.2,2.2,2.2,2.7,1.9c0.5-0.2,0-3.2,0.5-3.4c0.5-0.2,2.4,3,2.9,2.8c0.5-0.2,0.5-2,1.1-2.2c0.5-0.2,1.3,0.1,1.8-0.1
			c0.5-0.2,0.8-1.3,1.3-1.5c0.6-0.2,1.6,1,2.1,0.8c0.6-0.2,0.7-1.5,1.3-1.7c0.6-0.2,1.6,1.4,2.2,1.2c0.6-0.2,0.3-3.1,0.9-3.2
			c0.6-0.2,1.8,2,2.3,1.8c0.6-0.2,0.7-1.7,1.3-1.8c0.6-0.2,1.4,0.8,2,0.7c0.6-0.1,0.7-2.2,1.2-2.3c0.6-0.1,1.8,2.3,2.3,2.2
			c0.6-0.1,0.6-2.7,1.1-2.9c0.6-0.1,1.5,1.2,2,1c0.6-0.1,1-0.8,1.6-0.9c0.6-0.1,1.6,2,2.2,1.9c0.6-0.1,0.4-4.1,1-4.2
			c0.6-0.1,1.6,2.2,2.2,2.1c0.6-0.1,0.7-2.8,1.3-2.9c0.6-0.1,1.7,3.1,2.3,3c0.6-0.1,1-1.3,1.6-1.4c0.6-0.1,1.3,1.1,1.9,1
			c0.6-0.1,1-1.6,1.5-1.7c0.6-0.1,1.3,1.5,1.9,1.5c0.6-0.1,0.8-3.6,1.4-3.6c0.6-0.1,1.5,3.1,2.1,3c0.6-0.1,0.9-3.5,1.4-3.5
			c0.6,0,1.3,1.5,1.9,1.5c0.6,0,1.1-1.1,1.7-1.2c0.6,0,1.4,3.1,1.9,3.1c0.6,0,1-3.8,1.6-3.9c0.6,0,1.3,3.6,1.9,3.5
			c0.6,0,1.1-2.5,1.7-2.6c0.6,0,1.2,1.9,1.8,1.8c0.6,0,1.1-1.1,1.7-1.1c0.6,0,1.2,1.6,1.8,1.6c0.6,0,1.2-2.1,1.8-2.1
			c0.6,0,1.2,1.2,1.7,1.3c0.6,0,1.2-1.7,1.8-1.7c0.6,0,1.1,2.7,1.7,2.7c0.6,0,1.2-1.5,1.8-1.4c0.6,0,1.1,0.7,1.7,0.7
			c0.6,0,1.3-1.9,1.9-1.8c0.6,0,0.9,3.1,1.5,3.2c0.6,0,1.3-2.1,1.9-2.1c0.6,0,0.9,2.5,1.5,2.6c0.6,0.1,1.4-2.3,2-2.2
			c0.6,0.1,1,1.6,1.6,1.7c0.6,0.1,1.4-2.2,2-2.2c0.6,0.1,0.8,3,1.4,3c0.6,0.1,1.7-3.4,2.2-3.3c0.6,0.1,0.7,3.2,1.3,3.3
			c0.6,0.1,1.6-2.5,2.2-2.4c0.6,0.1,0.6,3.6,1.2,3.7c0.6,0.1,1.6-2.2,2.1-2.1c0.6,0.1,1.1,0.6,1.7,0.7c0.6,0.1,1.2-0.2,1.8-0.1
			c0.6,0.1,0.9,1.2,1.5,1.4c0.6,0.1,1.7-2.4,2.3-2.2c0.6,0.1,0.1,4.7,0.7,4.8c0.6,0.1,1.7-2,2.2-1.9c0.6,0.1,1,1,1.5,1.1
			c0.6,0.1,1.8-2.1,2.3-2c0.6,0.2,0.3,3.4,0.8,3.6c0.6,0.2,1.5-0.9,2-0.7c0.6,0.2,0.9,1.2,1.4,1.4c0.6,0.2,2.1-2.8,2.6-2.6
			c0.6,0.2-0.2,4.4,0.3,4.6c0.6,0.2,2-2.4,2.6-2.3c0.6,0.2,0.6,1.9,1.1,2.1c0.6,0.2,1.9-1.7,2.4-1.5c0.5,0.2,0.6,1.7,1.2,1.9
			c0.5,0.2,1.9-1.6,2.4-1.4c0.5,0.2-0.4,4.3,0.1,4.5c0.5,0.2,2.4-2.8,2.9-2.5c0.5,0.2,0.4,2.2,0.9,2.4c0.5,0.2,1.4-0.3,1.9-0.1
			c0.5,0.2-0.1,3,0.4,3.3c0.5,0.2,2.8-3.3,3.4-3c0.5,0.3-0.7,4.2-0.2,4.4c0.5,0.3,2.7-2.9,3.2-2.6c0.5,0.3-0.4,3.3,0.2,3.5
			c0.5,0.3,1.6-0.5,2.1-0.2c0.5,0.3,0.6,1.2,1.2,1.5c0.5,0.3,2.4-2,3-1.7c0.5,0.3-0.9,3.9-0.4,4.2c0.5,0.3,2.8-2.5,3.3-2.2
			c0.5,0.3-0.8,3.6-0.3,3.9c0.5,0.3,2-0.9,2.5-0.6c0.5,0.3,0.6,1.2,1.1,1.6c0.5,0.3,2-0.8,2.5-0.5c0.5,0.3,0.3,1.7,0.7,2
			c0.5,0.3,2.1-1,2.6-0.6c0.5,0.3-0.2,2.2,0.3,2.6c0.5,0.4,1,0.6,1.5,0.9c0.5,0.4-0.4,2.4,0,2.8c0.5,0.4,2-0.6,2.4-0.3
			c0.5,0.4,0.9,0.8,1.3,1.2c0.4,0.4,1,0.7,1.4,1.1c0.4,0.4-0.3,2,0.2,2.4c0.4,0.4,3.6-2.2,4-1.8c0.4,0.4-0.7,2.5-0.3,2.9
			c0.4,0.4,1.6,0.1,2,0.5c0.4,0.4-1,2.6-0.6,3c0.4,0.4,2.4-0.7,2.8-0.3c0.4,0.4-1.4,2.8-1,3.2c0.4,0.4,3.8-1.7,4.1-1.3
			c0.4,0.4-0.7,2.1-0.3,2.6c0.4,0.5,0.9,0.7,1.3,1.2c0.4,0.5,0.9,0.8,1.2,1.3c0.4,0.5,1.4,0.4,1.8,0.9c0.3,0.5-1,2.2-0.7,2.6
			c0.3,0.5,2.3-0.1,2.6,0.3c0.3,0.5-0.9,2-0.6,2.5c0.3,0.5,3.2-0.6,3.5-0.1c0.3,0.5-1.1,2-0.8,2.5c0.3,0.5,0.5,1.1,0.8,1.6
			c0.3,0.5,0,1.3,0.3,1.8c0.3,0.5,1.3,0.7,1.5,1.2c0.3,0.5-1,1.7-0.7,2.3c0.2,0.5,2.1,0.3,2.4,0.8c0.2,0.5,0.1,1.2,0.3,1.8
			c0.2,0.5,0.4,1.1,0.6,1.6c0.2,0.5,0.3,1.1,0.5,1.7c0.2,0.6,0.3,1.1,0.5,1.7c0.2,0.6,0.2,1.2,0.3,1.7c0.2,0.6,1.8,0.7,2,1.3
			c0.2,0.6-2.8,1.9-2.7,2.5c0.1,0.6,3.7,0.3,3.9,0.9c0.1,0.6-1.9,1.6-1.8,2.2c0.1,0.6,1.3,1,1.4,1.5c0.1,0.6-1.9,1.4-1.9,2
			c0.1,0.6,1.5,1,1.6,1.5c0.1,0.6,0.1,1.2,0.1,1.7c0,0.6,1.2,1.1,1.3,1.7c0,0.6-2.1,1.2-2,1.8C316.8,343.1,319,343.7,319,344.3z"/>
	</g>
	<g>
		<path fill="#1F4216" d="M303.9,270.5c0-0.4,1.9-1,1.9-1.4c0-0.4-2.6-0.6-2.7-1c-0.1-0.4,1.7-1.2,1.6-1.6c-0.1-0.4-1-0.7-1.1-1.1
			c-0.1-0.4,0.9-1.3,0.7-1.7c-0.2-0.4-2-0.1-2.2-0.5c-0.2-0.4,1.7-1.9,1.5-2.3c-0.2-0.4-3.7,1.2-4,0.8c-0.2-0.4,2.6-2.8,2.4-3.1
			c-0.2-0.4-3.5,1.5-3.8,1.2c-0.3-0.3,2.4-3.1,2.1-3.4c-0.3-0.3-2.6,1.1-2.9,0.8c-0.3-0.3,1.5-2.6,1.2-3c-0.3-0.3-3.1,1.9-3.4,1.6
			c-0.3-0.3,0.8-2.2,0.5-2.5c-0.3-0.3-1.9,0.8-2.2,0.6c-0.3-0.3,1.4-3.1,1-3.3c-0.3-0.3-2.8,2.2-3.2,2c-0.3-0.3,0.2-1.7-0.2-2
			c-0.4-0.3-1.6,0.8-2,0.6c-0.4-0.2,0.9-2.9,0.5-3.2c-0.4-0.2-1.9,1.3-2.3,1.1c-0.4-0.2,0.7-2.8,0.3-3.1c-0.4-0.2-2.6,2.8-3,2.6
			c-0.4-0.2,0.8-3.2,0.4-3.4c-0.4-0.2-1.4,0.7-1.8,0.5c-0.4-0.2-0.7-0.6-1.1-0.8c-0.4-0.2-1.7,1.5-2.1,1.3c-0.4-0.2,0.2-2.5-0.1-2.7
			c-0.4-0.2-1.5,1.1-1.9,1c-0.4-0.2,0-2.1-0.4-2.3c-0.4-0.2-1.3,0.7-1.7,0.5c-0.4-0.2-0.6-0.8-1-1c-0.4-0.2-1.1,0.4-1.5,0.2
			c-0.4-0.2-0.2-1.9-0.6-2c-0.4-0.2-1.5,1.5-1.9,1.4c-0.4-0.2-0.3-1.7-0.7-1.8c-0.4-0.2-1,0.2-1.4,0c-0.4-0.1-0.2-1.9-0.7-2.1
			c-0.4-0.1-1.4,1.4-1.8,1.2c-0.4-0.1-0.3-2-0.7-2.1c-0.4-0.1-1.5,1.9-2,1.7c-0.4-0.1-0.3-1.8-0.8-2c-0.4-0.1-1.7,2.5-2.1,2.4
			c-0.4-0.1-0.3-2.1-0.7-2.2c-0.4-0.1-1.3,1.3-1.7,1.1c-0.4-0.1-0.1-2.9-0.5-3c-0.4-0.1-1.3,1.3-1.7,1.2c-0.4-0.1-0.3-2.3-0.7-2.4
			c-0.4-0.1-1.6,2.8-2.1,2.7c-0.4-0.1-0.6-1.4-1-1.5c-0.4-0.1-1.3,1.6-1.7,1.5c-0.4-0.1-0.2-2.8-0.7-2.9c-0.4-0.1-1.1,0.7-1.5,0.6
			c-0.4-0.1-0.6-1.5-1-1.6c-0.4-0.1-1.2,1.5-1.7,1.4c-0.4-0.1-0.7-0.7-1.2-0.8c-0.4-0.1-0.9-0.1-1.3-0.1c-0.4-0.1-0.4-2.2-0.9-2.3
			c-0.4-0.1-1.2,1.5-1.6,1.4c-0.4-0.1-0.6-1.5-1-1.6c-0.4-0.1-1.4,3-1.9,2.9c-0.4-0.1-0.5-2.3-0.9-2.4c-0.4-0.1-1.2,1.6-1.6,1.5
			c-0.4-0.1-0.5-2.2-1-2.3c-0.4-0.1-1.1,1.4-1.6,1.4c-0.4-0.1-0.6-1.6-1.1-1.6c-0.4-0.1-1.2,2.4-1.7,2.3c-0.4-0.1-0.5-2.8-0.9-2.9
			c-0.4-0.1-1.2,2.4-1.7,2.3c-0.4-0.1-0.6-1.8-1.1-1.9c-0.4-0.1-0.9-0.1-1.3-0.1c-0.4-0.1-0.8-0.6-1.2-0.7c-0.4-0.1-1,1-1.4,0.9
			c-0.4-0.1-0.7-1.4-1.2-1.4c-0.4,0-1.2,2.8-1.6,2.7c-0.4,0-0.5-3.3-1-3.3c-0.4,0-1,0.9-1.4,0.8c-0.4,0-0.8-1.1-1.2-1.1
			c-0.4,0-1,1.5-1.5,1.4c-0.4,0-0.7-1.9-1.2-1.9c-0.4,0-1,1.6-1.5,1.6c-0.4,0-0.8-0.8-1.3-0.8c-0.4,0-0.9,0.4-1.4,0.4
			c-0.4,0-0.8-1.5-1.2-1.5c-0.4,0-1.1,3.1-1.5,3.1c-0.4,0-0.7-2.7-1.2-2.7c-0.4,0-1,1.2-1.4,1.2c-0.4,0-0.8-1.9-1.2-1.9
			c-0.4,0-1,1.4-1.4,1.4c-0.4,0-0.8-1-1.3-1c-0.4,0-0.9,0.7-1.4,0.7c-0.4,0-0.8-2.2-1.3-2.2c-0.4,0-1,4.1-1.5,4.1
			c-0.4,0-0.8-2.7-1.3-2.7c-0.4,0-0.9,1.5-1.4,1.5c-0.4,0-0.8-2.7-1.3-2.7c-0.4,0-0.9,3.3-1.4,3.3c-0.4,0-0.9-2.2-1.3-2.2
			c-0.4,0-0.9,0.7-1.3,0.7c-0.4,0-0.9-0.6-1.3-0.6c-0.4,0-0.9,0.6-1.3,0.6c-0.4,0-0.9-1.9-1.3-1.9c-0.4,0-0.9,2.6-1.3,2.6
			c-0.4,0-0.9-2.4-1.4-2.4c-0.4,0-0.8,3.1-1.3,3.1c-0.4,0-0.9-1.4-1.4-1.4c-0.4,0-0.8,2.3-1.3,2.3c-0.4,0-1-2.8-1.4-2.8
			c-0.4,0-0.8,2.3-1.2,2.3c-0.4,0-1-2.3-1.4-2.3c-0.4,0-0.8,1.2-1.3,1.2c-0.4,0-1-1.9-1.4-1.9c-0.4,0-0.8,1.8-1.2,1.8
			c-0.4,0-1-1.2-1.4-1.1c-0.4,0-0.8,1-1.3,1c-0.4,0-0.9-0.7-1.4-0.7c-0.4,0-0.8,0.8-1.3,0.8c-0.4,0-1-1.6-1.4-1.6
			c-0.4,0-0.7,2.2-1.2,2.2c-0.4,0-1-1.5-1.4-1.4c-0.4,0-0.6,2.7-1.1,2.8c-0.4,0-1.1-2.6-1.6-2.6c-0.4,0-0.7,1.8-1.1,1.9
			c-0.4,0-1.1-2-1.5-2c-0.4,0-0.7,2-1.1,2.1c-0.4,0-1.1-2-1.5-1.9c-0.4,0-0.6,2.9-1,2.9c-0.4,0.1-1-1-1.4-0.9
			c-0.4,0.1-0.8,0.7-1.2,0.8c-0.4,0.1-0.9-0.3-1.4-0.3c-0.4,0.1-0.8,0.5-1.3,0.5c-0.4,0.1-1.2-2.4-1.7-2.3c-0.4,0.1-0.5,2.4-1,2.5
			c-0.4,0.1-1.2-2-1.6-2c-0.4,0.1-0.5,2.6-0.9,2.6c-0.4,0.1-1-0.8-1.5-0.7c-0.4,0.1-0.5,2.5-0.9,2.6c-0.4,0.1-1.5-3.2-1.9-3.2
			c-0.4,0.1-0.6,1.6-1,1.7c-0.4,0.1-1.2-1.8-1.7-1.7c-0.4,0.1-0.5,2.2-0.9,2.3c-0.4,0.1-1-0.5-1.4-0.4c-0.4,0.1-0.7,1-1.1,1
			c-0.4,0.1-0.9,0.1-1.3,0.2c-0.4,0.1-0.5,1.8-0.9,1.9c-0.4,0.1-1.2-1.5-1.7-1.4c-0.4,0.1-0.8,0.6-1.2,0.7c-0.4,0.1-1.5-2.4-1.9-2.3
			c-0.4,0.1-0.2,3-0.6,3.1c-0.4,0.1-1-0.6-1.5-0.5c-0.4,0.1-0.8,0.3-1.3,0.4c-0.4,0.1-1.2-1.2-1.7-1.1c-0.4,0.1-0.4,2-0.8,2.1
			c-0.4,0.1-1.3-1.5-1.8-1.4c-0.4,0.1,0,3.4-0.4,3.5c-0.4,0.1-1.9-3.4-2.3-3.2c-0.4,0.1-0.3,2.2-0.7,2.4c-0.4,0.1-1.3-1.3-1.7-1.1
			c-0.4,0.1-0.3,1.9-0.8,2c-0.4,0.1-1.1-0.5-1.5-0.4c-0.4,0.1-0.6,0.9-1,1.1c-0.4,0.1-0.9,0.2-1.3,0.3c-0.4,0.1-0.3,1.7-0.7,1.9
			c-0.4,0.2-1.6-1.9-2.1-1.8c-0.4,0.2-0.1,2.3-0.5,2.5c-0.4,0.2-1.8-2.1-2.2-2c-0.4,0.2,0.3,3.2-0.1,3.4c-0.4,0.2-1.5-1.2-1.9-1.1
			c-0.4,0.2-0.3,1.5-0.7,1.7c-0.4,0.2-1.6-1.3-2-1.2c-0.4,0.2,0.1,2.3-0.3,2.5c-0.4,0.2-1.7-1.5-2.1-1.3c-0.4,0.2-0.6,0.8-1,1
			c-0.4,0.2-0.8,0.4-1.2,0.6c-0.4,0.2,0,1.9-0.4,2.1c-0.4,0.2-2.5-2.8-2.9-2.6c-0.4,0.2,0.9,3.3,0.5,3.6c-0.4,0.2-1.6-1-1.9-0.7
			c-0.4,0.2,0.2,1.9-0.2,2.2c-0.4,0.2-1.7-1.1-2.1-0.9c-0.4,0.2-0.2,1.3-0.6,1.5c-0.4,0.3-2.3-1.7-2.6-1.4c-0.4,0.3,1.5,3.6,1.2,3.9
			c-0.4,0.3-3.1-2.5-3.4-2.2c-0.3,0.3,1.1,2.8,0.8,3.1c-0.3,0.3-2.3-1.2-2.6-1c-0.3,0.3,1,2.4,0.7,2.7c-0.3,0.3-2.6-1.3-2.9-1
			c-0.3,0.3,2,3.1,1.7,3.5c-0.3,0.3-2.7-1.2-2.9-0.8c-0.3,0.3,1.1,2,0.9,2.4c-0.3,0.4-1.6-0.1-1.8,0.3c-0.3,0.4,1.5,2,1.2,2.3
			c-0.2,0.4-3.1-0.8-3.3-0.5c-0.2,0.4,2,2,1.9,2.4c-0.2,0.4-3.5-0.6-3.7-0.2c-0.2,0.4,2,1.7,1.8,2.1c-0.1,0.4-1.5,0.5-1.6,0.9
			c-0.1,0.4,1.4,1.1,1.3,1.6c-0.1,0.4-1.1,0.7-1.1,1.1c0,0.4,0.3,0.9,0.3,1.3c0,0.4-1,0.9-0.9,1.4c0,0.4,1.8,0.6,1.9,1.1
			c0.1,0.4-2.3,1.4-2.2,1.8c0.1,0.4,3,0.1,3.2,0.5c0.1,0.4-1.4,1.4-1.2,1.8c0.2,0.4,1.5,0.3,1.7,0.7c0.2,0.4-1,1.5-0.8,1.8
			c0.2,0.4,2.5-0.5,2.7-0.1c0.2,0.4-2,2.3-1.7,2.7c0.2,0.4,1.8-0.2,2,0.2c0.3,0.3-0.2,1.3,0.1,1.6c0.3,0.3,1.5-0.2,1.8,0.1
			c0.3,0.3-1.6,2.7-1.3,3.1c0.3,0.3,3.3-2.1,3.6-1.8c0.3,0.3-0.5,1.8-0.1,2c0.3,0.3,1.3-0.2,1.7,0.1c0.3,0.3-0.5,2-0.1,2.2
			c0.3,0.3,1.9-1.1,2.3-0.8c0.3,0.3-0.6,2.2-0.2,2.5c0.4,0.3,1.9-1.2,2.3-0.9c0.4,0.2-0.8,2.7-0.4,3c0.4,0.2,1.9-1.3,2.3-1.1
			c0.4,0.2-0.3,2.2,0,2.5c0.4,0.2,2.1-1.9,2.5-1.7c0.4,0.2-0.3,2.2,0.1,2.5c0.4,0.2,1.3-0.5,1.7-0.3c0.4,0.2-0.3,2.6,0,2.8
			c0.4,0.2,2.6-3.2,3-3c0.4,0.2-0.8,3.6-0.4,3.8c0.4,0.2,2.2-2.5,2.6-2.3c0.4,0.2-0.3,2.7,0.1,2.9c0.4,0.2,1.3-0.8,1.7-0.6
			c0.4,0.2,0.5,1,0.9,1.2c0.4,0.2,1.2-0.7,1.6-0.5c0.4,0.2,0.6,0.8,1,1c0.4,0.2,1.4-1.3,1.8-1.1c0.4,0.2-0.4,3.4,0.1,3.5
			c0.4,0.2,1.7-2,2.1-1.9c0.4,0.1,0.3,1.8,0.7,1.9c0.4,0.1,1.6-2,2-1.9c0.4,0.1-0.2,3.3,0.2,3.4c0.4,0.1,1.5-1.7,1.9-1.5
			c0.4,0.1,0,2.8,0.5,2.9c0.4,0.1,1.3-1.4,1.8-1.2c0.4,0.1,0.7,0.7,1.1,0.9c0.4,0.1,1.1-0.5,1.5-0.4c0.4,0.1,0.3,2.3,0.7,2.5
			c0.4,0.1,1.3-1.5,1.8-1.4c0.4,0.1,0.8,0.3,1.2,0.4c0.4,0.1,1.1-0.7,1.5-0.6c0.4,0.1,0.7,0.8,1.1,0.9c0.4,0.1,1-0.4,1.4-0.3
			c0.4,0.1,0.6,1.3,1,1.4c0.4,0.1,0.9-0.1,1.4,0c0.4,0.1,0.7,0.7,1.2,0.8c0.4,0.1,1.4-2.1,1.8-2c0.4,0.1,0.5,2,0.9,2.1
			c0.4,0.1,1.2-1.4,1.6-1.3c0.4,0.1,0.2,3.5,0.6,3.5c0.4,0.1,1.6-3.8,2.1-3.7c0.4,0.1,0.2,3.7,0.6,3.8c0.4,0.1,1.2-1.9,1.7-1.8
			c0.4,0.1,0.7,1.3,1.1,1.3c0.4,0.1,1.2-1.6,1.6-1.5c0.4,0.1,0.7,1.3,1.1,1.4c0.4,0.1,1.2-1.8,1.6-1.7c0.4,0.1,0.4,3.4,0.8,3.4
			c0.4,0.1,1.1-1.6,1.6-1.5c0.4,0.1,0.6,2.3,1,2.3c0.4,0.1,1.2-2.1,1.6-2c0.4,0.1,0.5,2.7,1,2.8c0.4,0.1,1.3-3.1,1.7-3
			c0.4,0.1,0.5,2.7,1,2.8c0.4,0.1,1.1-1.6,1.5-1.5c0.4,0.1,0.8,0.4,1.3,0.5c0.4,0,1-0.7,1.4-0.7c0.4,0,0.8,1,1.2,1.1
			c0.4,0,1-1.4,1.5-1.3c0.4,0,0.7,1.6,1.2,1.7c0.4,0,1.1-2.2,1.5-2.2c0.4,0,0.7,2.4,1.1,2.4c0.4,0,1-1.4,1.4-1.3
			c0.4,0,0.7,1.8,1.2,1.8c0.4,0,1-1.2,1.4-1.1c0.4,0,0.8,0.6,1.3,0.6c0.4,0,0.9-1,1.4-1c0.4,0,0.8,1.7,1.2,1.7
			c0.4,0,0.9-0.2,1.3-0.1c0.4,0,0.8,0.6,1.3,0.7c0.4,0,0.9-0.7,1.4-0.7c0.4,0,0.8,1.1,1.3,1.1c0.4,0,1-2.7,1.4-2.7
			c0.4,0,0.8,2.5,1.2,2.5c0.4,0,1-2.8,1.4-2.8c0.4,0,0.8,3.4,1.2,3.4c0.4,0,0.9-2.9,1.4-2.9c0.4,0,0.8,2.9,1.3,2.9
			c0.4,0,0.9-2.2,1.4-2.2c0.4,0,0.9,1.5,1.3,1.5c0.4,0,0.9-1.8,1.3-1.8c0.4,0,0.9,3.3,1.3,3.3c0.4,0,0.9-2.9,1.3-2.9
			c0.4,0,0.9,1.5,1.3,1.5c0.4,0,0.9-0.6,1.3-0.6c0.4,0,0.9,1.9,1.4,1.9c0.4,0,0.8-2.1,1.3-2.1c0.4,0,0.9,2.2,1.4,2.1
			c0.4,0,0.8-3,1.2-3c0.4,0,0.9,1,1.4,1c0.4,0,0.8-1.3,1.3-1.3c0.4,0,1,3,1.4,3c0.4,0,0.8-2.8,1.2-2.8c0.4,0,1,1.9,1.4,1.8
			c0.4,0,0.8-1.8,1.2-1.8c0.4,0,1,2.4,1.5,2.4c0.4,0,0.8-1.9,1.2-1.9c0.4,0,1,1.1,1.4,1.1c0.4,0,0.7-2.6,1.1-2.6
			c0.4,0,1.1,3.3,1.6,3.3c0.4,0,0.6-3.4,1.1-3.5c0.4,0,1.2,3.5,1.6,3.4c0.4,0,0.6-3.1,1-3.2c0.4,0,1.1,2.5,1.6,2.4
			c0.4,0,0.5-3.8,1-3.9c0.4,0,1.3,4.2,1.7,4.1c0.4,0,0.5-3.8,0.9-3.9c0.4,0,1.1,1.9,1.5,1.9c0.4,0,0.7-1.8,1.1-1.9
			c0.4-0.1,1.1,1.7,1.5,1.6c0.4-0.1,0.8-0.7,1.2-0.8c0.4-0.1,0.9,0.4,1.4,0.3c0.4-0.1,0.7-1.6,1.1-1.7c0.4-0.1,1.2,2.3,1.7,2.3
			c0.4-0.1,0.4-3.2,0.9-3.3c0.4-0.1,1.2,2.1,1.6,2c0.4-0.1,0.7-0.9,1.2-1c0.4-0.1,1.1,1.5,1.6,1.5c0.4-0.1,0.3-3.6,0.7-3.7
			c0.4-0.1,1.2,2,1.7,2c0.4-0.1,0.6-1.6,1-1.7c0.4-0.1,1.3,2.4,1.8,2.4c0.4-0.1,0.6-1.6,1-1.7c0.4-0.1,1,0.6,1.4,0.5
			c0.4-0.1,0.5-2,0.9-2.1c0.4-0.1,1.3,2,1.7,1.9c0.4-0.1,0.6-1.3,1-1.4c0.4-0.1,1.4,2.1,1.8,2c0.4-0.1,0-3.8,0.5-3.9
			c0.4-0.1,1.7,3.5,2.1,3.4c0.4-0.1,0-3.8,0.4-3.9c0.4-0.1,1.3,1.6,1.7,1.5c0.4-0.1,0.7-0.9,1.1-1c0.4-0.1,1.4,2,1.9,1.9
			c0.4-0.1,0.3-2.2,0.8-2.3c0.4-0.1,1.1,0.7,1.5,0.6c0.4-0.1,0.3-2.1,0.7-2.2c0.4-0.1,1.2,1.1,1.7,1c0.4-0.1,0.3-2,0.7-2.1
			c0.4-0.1,1.5,1.8,1.9,1.7c0.4-0.1,0.5-1.4,0.9-1.5c0.4-0.1,1.3,1.1,1.7,0.9c0.4-0.1,0.3-1.8,0.7-1.9c0.4-0.1,1.2,0.8,1.6,0.6
			c0.4-0.1,0.4-1.6,0.8-1.8c0.4-0.2,1.8,2.4,2.2,2.2c0.4-0.2,0-2.4,0.4-2.6c0.4-0.2,1.7,1.8,2.1,1.7c0.4-0.2-0.7-4-0.3-4.2
			c0.4-0.2,2.1,2.7,2.5,2.5c0.4-0.2,0-2.3,0.4-2.5c0.4-0.2,1.6,1.5,2,1.3c0.4-0.2-0.2-2.6,0.2-2.8c0.4-0.2,2.1,2.3,2.5,2.1
			c0.4-0.2,0.1-1.8,0.5-2c0.4-0.2,1.3,0.6,1.7,0.4c0.4-0.2-0.1-2,0.3-2.2c0.4-0.2,1.8,1.4,2.1,1.2c0.4-0.2-0.2-2.2,0.1-2.4
			c0.4-0.2,1.3,0.5,1.7,0.3c0.4-0.2-0.3-2.1,0.1-2.4c0.4-0.2,1.9,1.4,2.3,1.1c0.4-0.2-0.4-2.2-0.1-2.5c0.4-0.3,2.4,1.9,2.7,1.6
			c0.4-0.3-1.3-3.3-1-3.5c0.4-0.3,2.4,1.7,2.8,1.5c0.3-0.3-0.2-1.7,0.1-1.9c0.3-0.3,1.6,0.5,1.9,0.2c0.3-0.3-1.2-2.6-0.9-2.9
			c0.3-0.3,2.9,1.7,3.2,1.4c0.3-0.3-0.7-1.9-0.4-2.3c0.3-0.3,2.1,0.6,2.4,0.3c0.3-0.3-1.3-2.2-1-2.5c0.3-0.4,3,1.1,3.2,0.7
			c0.3-0.4-2.2-2.6-2-2.9c0.2-0.4,2.3,0.3,2.5,0c0.2-0.4-2.2-2.1-2-2.5c0.2-0.4,3.2,0.5,3.4,0.1c0.2-0.4-2.6-1.8-2.5-2.3
			c0.1-0.4,4.1,0.2,4.2-0.2c0.1-0.4-3.6-1.6-3.6-2.1c0.1-0.4,3.3-0.5,3.3-0.9C305.6,271.5,303.9,271,303.9,270.5z"/>
	</g>
	<g>
		<path fill="#1F4216" d="M287.9,245.3c0-0.4,1.9-1,1.8-1.4c-0.1-0.3-2.6,0-2.7-0.3c-0.1-0.3,1.4-1.4,1.2-1.8
			c-0.2-0.3-1.2-0.1-1.4-0.4c-0.2-0.3,0.6-1.5,0.3-1.7c-0.2-0.3-1.8,0.8-2.1,0.5c-0.3-0.2,1-2.3,0.7-2.5c-0.3-0.2-2.7,2.4-3,2.2
			c-0.3-0.2,1.4-3.3,1.1-3.5c-0.3-0.2-2.5,2.6-2.8,2.4c-0.3-0.2,1.2-3.4,0.9-3.6c-0.3-0.2-1.9,1.9-2.2,1.8c-0.3-0.2,0.6-2.8,0.3-3
			c-0.3-0.2-2.1,2.7-2.4,2.6c-0.3-0.1,0.2-2.2-0.1-2.4c-0.3-0.1-1.4,1.5-1.7,1.3c-0.3-0.1,0.5-3.1,0.2-3.2c-0.3-0.1-1.9,2.8-2.2,2.7
			c-0.3-0.1-0.1-1.7-0.4-1.8c-0.3-0.1-1.2,1.3-1.6,1.2c-0.3-0.1,0.2-2.9-0.1-3c-0.3-0.1-1.3,1.8-1.7,1.7c-0.3-0.1,0.1-2.8-0.2-2.9
			c-0.3-0.1-1.7,3.1-2,3c-0.3-0.1,0.2-3.1-0.2-3.2c-0.3-0.1-1.1,1.1-1.4,1.1c-0.3-0.1-0.6-0.6-0.9-0.7c-0.3-0.1-1.2,1.9-1.6,1.8
			c-0.3-0.1-0.1-2.4-0.4-2.5c-0.3-0.1-1.1,1.5-1.4,1.4c-0.3-0.1-0.2-2-0.6-2.1c-0.3-0.1-1,1.1-1.3,1c-0.3-0.1-0.5-0.8-0.9-0.9
			c-0.3-0.1-0.9,0.8-1.2,0.7c-0.3-0.1-0.3-1.8-0.7-1.9c-0.3-0.1-1.1,1.8-1.4,1.7c-0.3-0.1-0.4-1.6-0.7-1.7c-0.3-0.1-0.8,0.5-1.2,0.5
			c-0.3-0.1-0.4-1.9-0.7-2c-0.3-0.1-1,1.6-1.4,1.6c-0.3-0.1-0.4-1.9-0.7-2c-0.3-0.1-1.1,2.1-1.4,2c-0.3-0.1-0.4-1.8-0.8-1.8
			c-0.3-0.1-1.2,2.6-1.5,2.6c-0.3-0.1-0.4-2-0.7-2.1c-0.3-0.1-1,1.5-1.3,1.4c-0.3-0.1-0.3-2.8-0.6-2.8c-0.3-0.1-1,1.5-1.3,1.5
			c-0.3-0.1-0.4-2.2-0.7-2.3c-0.4-0.1-1.1,2.8-1.5,2.8c-0.4-0.1-0.5-1.4-0.9-1.4c-0.4,0-1,1.8-1.3,1.7c-0.4,0-0.4-2.6-0.7-2.7
			c-0.3,0-0.8,1-1.2,0.9c-0.3,0-0.5-1.5-0.9-1.5c-0.4,0-0.9,1.6-1.3,1.6c-0.4,0-0.6-0.8-1-0.8c-0.4,0-0.7,0.3-1.1,0.3
			c-0.4,0-0.5-2.2-0.8-2.2c-0.4,0-0.9,1.7-1.3,1.6c-0.4,0-0.6-1.5-0.9-1.6c-0.4,0-1,2.9-1.4,2.9c-0.4,0-0.5-2.2-0.8-2.2
			c-0.4,0-0.9,1.7-1.2,1.7c-0.4,0-0.5-2.1-0.9-2.1c-0.4,0-0.9,1.6-1.2,1.5c-0.4,0-0.6-1.6-0.9-1.6c-0.4,0-0.9,2.4-1.3,2.4
			c-0.4,0-0.5-2.7-0.8-2.7c-0.4,0-0.9,2.4-1.3,2.4c-0.4,0-0.6-1.8-0.9-1.9c-0.4,0-0.7,0.2-1.1,0.2c-0.4,0-0.7-0.8-1-0.8
			c-0.4,0-0.8,1.2-1.1,1.1c-0.4,0-0.6-1.4-1-1.5c-0.4,0-0.9,2.7-1.2,2.7c-0.4,0-0.5-3.1-0.9-3.1c-0.4,0-0.8,1.1-1.1,1
			c-0.4,0-0.6-1.2-1-1.2c-0.4,0-0.8,1.6-1.2,1.6c-0.4,0-0.6-1.9-1-1.9c-0.4,0-0.8,1.7-1.2,1.7c-0.4,0-0.7-0.9-1-0.9
			c-0.4,0-0.7,0.7-1.1,0.7c-0.4,0-0.7-1.5-1-1.5c-0.4,0-0.8,3-1.2,3c-0.4,0-0.6-2.6-1-2.6c-0.4,0-0.8,1.3-1.1,1.3
			c-0.4,0-0.7-1.9-1-1.9c-0.4,0-0.8,1.5-1.1,1.5c-0.4,0-0.7-1.1-1-1.1c-0.4,0-0.7,0.9-1.1,0.9c-0.4,0-0.7-2.1-1-2.2
			c-0.4,0-0.8,3.8-1.1,3.8c-0.4,0-0.7-2.6-1-2.6c-0.4,0-0.7,1.6-1.1,1.6c-0.4,0-0.7-2.6-1-2.6c-0.4,0-0.7,3.2-1.1,3.1
			c-0.4,0-0.7-2.2-1.1-2.2c-0.4,0-0.7,0.9-1.1,0.9c-0.4,0-0.7-0.8-1.1-0.8c-0.4,0-0.7,0.8-1.1,0.8c-0.4,0-0.7-1.9-1.1-1.9
			c-0.4,0-0.7,2.5-1.1,2.5c-0.4,0-0.7-2.4-1.1-2.4c-0.4,0-0.7,2.9-1,2.9c-0.4,0-0.7-1.5-1.1-1.5c-0.4,0-0.7,2.2-1,2.2
			c-0.4,0-0.8-2.7-1.1-2.7c-0.4,0-0.7,2.2-1,2.2c-0.4,0-0.8-2.2-1.1-2.2c-0.4,0-0.7,1.3-1,1.3c-0.4,0-0.8-1.9-1.1-1.9
			c-0.4,0-0.7,1.8-1,1.8c-0.4,0-0.8-1.3-1.1-1.3c-0.4,0-0.7,1.1-1,1.1c-0.4,0-0.7-0.9-1.1-0.9c-0.4,0-0.7,0.9-1,0.9
			c-0.4,0-0.8-1.7-1.1-1.7c-0.4,0-0.6,2.1-1,2.1c-0.4,0-0.8-1.6-1.1-1.5c-0.4,0-0.6,2.6-0.9,2.6c-0.4,0-0.8-2.6-1.2-2.6
			c-0.4,0-0.6,1.8-1,1.8c-0.4,0-0.8-2.1-1.2-2c-0.4,0-0.6,2-0.9,2c-0.4,0-0.8-2-1.2-2c-0.4,0-0.5,2.7-0.9,2.8
			c-0.4,0-0.8-1.1-1.1-1.1c-0.4,0-0.7,0.8-1,0.9c-0.4,0-0.8-0.6-1.1-0.6c-0.4,0-0.7,0.6-1,0.7c-0.4,0-0.9-2.4-1.3-2.4
			c-0.4,0-0.5,2.3-0.9,2.4c-0.4,0-0.9-2.1-1.2-2.1c-0.4,0-0.5,2.5-0.9,2.5c-0.4,0-0.8-1-1.2-1c-0.4,0-0.5,2.4-0.8,2.4
			c-0.4,0-1-3.2-1.4-3.1c-0.4,0-0.6,1.6-0.9,1.7c-0.4,0-0.9-1.9-1.3-1.9c-0.4,0-0.5,2.2-0.8,2.2c-0.4,0-0.8-0.8-1.2-0.8
			c-0.4,0-0.6,1-1,1.1c-0.4,0-0.7-0.3-1.1-0.2c-0.4,0-0.5,1.8-0.9,1.8c-0.4,0-0.9-1.7-1.3-1.6c-0.4,0-0.6,0.7-1,0.8
			c-0.4,0-1-2.4-1.4-2.4c-0.4,0-0.3,2.9-0.7,2.9c-0.4,0-0.8-0.9-1.2-0.8c-0.4,0-0.7,0.5-1,0.5c-0.4,0.1-0.9-1.4-1.3-1.4
			c-0.4,0.1-0.4,2-0.8,2c-0.4,0.1-1-1.7-1.3-1.7c-0.4,0.1-0.2,3.1-0.6,3.2c-0.4,0.1-1.3-3.4-1.6-3.3c-0.4,0.1-0.4,2.1-0.7,2.2
			c-0.4,0.1-1-1.5-1.3-1.5c-0.4,0.1-0.4,1.8-0.8,1.9c-0.4,0.1-0.9-0.9-1.2-0.8c-0.4,0.1-0.5,1-0.9,1.1c-0.4,0.1-0.8-0.2-1.1-0.2
			c-0.4,0.1-0.4,1.7-0.7,1.8c-0.4,0.1-1.2-2.1-1.5-2.1c-0.4,0.1-0.3,2.2-0.6,2.3c-0.4,0.1-1.2-2.3-1.6-2.3c-0.3,0.1-0.1,3-0.4,3.1
			c-0.3,0.1-1.1-1.5-1.4-1.5c-0.3,0.1-0.4,1.5-0.7,1.6c-0.3,0.1-1.1-1.7-1.5-1.6c-0.3,0.1-0.2,2.2-0.5,2.3c-0.3,0.1-1.2-1.8-1.5-1.7
			c-0.3,0.1-0.5,0.9-0.9,0.9c-0.3,0.1-0.7,0-1.1,0.1c-0.3,0.1-0.2,1.9-0.6,2c-0.3,0.1-1.6-3.1-2-3c-0.3,0.1,0.2,3.2-0.1,3.3
			c-0.3,0.1-1.2-1.4-1.5-1.3c-0.3,0.1-0.1,1.9-0.5,2c-0.3,0.1-1.3-1.6-1.6-1.5c-0.3,0.1-0.3,1.3-0.6,1.4c-0.3,0.1-1.5-2.2-1.9-2
			c-0.3,0.1,0.6,3.6,0.3,3.7c-0.3,0.1-2-3.1-2.3-3c-0.3,0.1,0.4,2.8,0.1,3c-0.3,0.1-1.6-1.9-1.9-1.7c-0.3,0.1,0.3,2.4,0,2.6
			c-0.3,0.2-1.8-2.1-2.1-1.9c-0.3,0.2,0.9,3.4,0.6,3.5c-0.3,0.2-1.9-2-2.2-1.8c-0.3,0.2,0.5,2.2,0.2,2.4c-0.3,0.2-1.4-0.8-1.6-0.6
			c-0.3,0.2,0.7,2.2,0.4,2.4c-0.3,0.2-2.3-1.9-2.6-1.7c-0.3,0.2,1.2,2.4,0.9,2.7c-0.3,0.2-2.8-1.8-3-1.6c-0.2,0.3,1.3,2.1,1.1,2.4
			c-0.2,0.3-1.5-0.2-1.7,0.1c-0.2,0.3,1.2,1.3,1,1.6c-0.1,0.3-1.3,0.3-1.3,0.6c-0.1,0.3,0.5,0.7,0.5,1.1c0,0.4-1.1,0.8-1,1.2
			c0.1,0.3,1.8,0.1,2,0.5c0.1,0.3-1.9,1.7-1.7,2c0.2,0.3,2.7-1,2.9-0.7c0.2,0.3-1,1.6-0.7,1.9c0.2,0.3,1.4-0.5,1.7-0.2
			c0.3,0.2-0.5,1.7-0.2,1.9c0.3,0.2,1.9-1.5,2.2-1.2c0.3,0.2-1,2.7-0.7,2.9c0.3,0.2,1.4-1,1.8-0.8c0.3,0.2,0,1.3,0.4,1.5
			c0.3,0.2,1.3-0.9,1.6-0.7c0.3,0.2-0.7,2.9-0.4,3.1c0.3,0.2,2.2-2.9,2.5-2.7c0.3,0.1-0.1,1.8,0.3,1.9c0.3,0.1,1.1-0.8,1.4-0.7
			c0.3,0.1-0.1,2,0.3,2.1c0.3,0.1,1.4-1.6,1.7-1.5c0.3,0.1-0.1,2.2,0.3,2.4c0.3,0.1,1.4-1.7,1.7-1.6c0.3,0.1-0.2,2.7,0.2,2.8
			c0.3,0.1,1.3-1.8,1.7-1.7c0.3,0.1,0,2.2,0.4,2.3c0.3,0.1,1.4-2.3,1.8-2.2c0.3,0.1,0.1,2.2,0.4,2.3c0.3,0.1,1-1,1.4-0.9
			c0.3,0.1,0,2.5,0.4,2.6c0.3,0.1,1.7-3.5,2-3.4c0.3,0.1-0.2,3.5,0.2,3.6c0.3,0.1,1.4-2.8,1.8-2.7c0.3,0.1,0.1,2.6,0.4,2.7
			c0.3,0.1,1-1.2,1.4-1.1c0.3,0.1,0.5,1,0.8,1.1c0.3,0.1,1-1,1.3-1c0.3,0.1,0.5,0.9,0.9,0.9c0.3,0.1,1-1.6,1.4-1.5
			c0.3,0.1,0.1,3.2,0.4,3.3c0.3,0.1,1.2-2.2,1.5-2.2c0.3,0.1,0.4,1.7,0.7,1.8c0.3,0.1,1.1-2.2,1.5-2.1c0.3,0.1,0.1,3.1,0.5,3.2
			c0.3,0.1,1.1-1.9,1.4-1.8c0.3,0.1,0.3,2.6,0.6,2.7c0.3,0.1,1-1.6,1.3-1.5c0.3,0.1,0.6,0.8,0.9,0.9c0.3,0.1,0.9-0.9,1.2-0.8
			c0.3,0.1,0.4,2.2,0.7,2.3c0.3,0.1,1-1.7,1.3-1.7c0.3,0.1,0.6,0.5,1,0.5c0.4,0.1,0.9-1,1.2-0.9c0.4,0.1,0.6,0.9,0.9,0.9
			c0.4,0,0.8-0.7,1.2-0.7c0.4,0,0.5,1.3,0.9,1.4c0.3,0,0.8-0.5,1.1-0.4c0.3,0,0.6,0.8,1,0.9c0.4,0,1-2.2,1.3-2.1c0.4,0,0.5,2,0.8,2
			c0.4,0,0.9-1.6,1.2-1.5c0.4,0,0.3,3.2,0.7,3.3c0.4,0,1.1-3.7,1.5-3.7c0.4,0,0.3,3.4,0.7,3.5c0.4,0,0.9-2,1.3-1.9
			c0.4,0,0.6,1.3,0.9,1.3c0.4,0,0.9-1.7,1.2-1.7c0.4,0,0.6,1.3,0.9,1.4c0.4,0,0.9-1.9,1.2-1.9c0.4,0,0.4,3.1,0.8,3.2
			c0.4,0,0.9-1.7,1.2-1.7c0.4,0,0.5,2.2,0.9,2.2c0.4,0,0.9-2.2,1.2-2.1c0.4,0,0.5,2.6,0.9,2.6c0.4,0,0.9-3,1.3-2.9
			c0.4,0,0.5,2.6,0.9,2.6c0.4,0,0.8-1.7,1.2-1.7c0.4,0,0.7,0.6,1,0.6c0.4,0,0.8-0.9,1.1-0.9c0.4,0,0.6,1.1,1,1.1
			c0.4,0,0.8-1.5,1.2-1.5c0.4,0,0.6,1.6,1,1.7c0.4,0,0.8-2.2,1.2-2.2c0.4,0,0.6,2.3,1,2.3c0.4,0,0.8-1.5,1.1-1.5
			c0.4,0,0.6,1.8,1,1.8c0.4,0,0.8-1.3,1.1-1.3c0.4,0,0.7,0.7,1,0.8c0.4,0,0.8-1.2,1.1-1.1c0.4,0,0.7,1.7,1,1.7
			c0.4,0,0.7-0.4,1.1-0.4c0.4,0,0.7,0.8,1,0.8c0.4,0,0.7-0.9,1.1-0.9c0.4,0,0.7,1.2,1,1.2c0.4,0,0.8-2.7,1.1-2.7
			c0.4,0,0.7,2.4,1,2.4c0.4,0,0.8-2.7,1.1-2.7c0.4,0,0.7,3.2,1,3.2c0.4,0,0.8-2.8,1.1-2.8c0.4,0,0.7,2.7,1,2.7
			c0.4,0,0.7-2.2,1.1-2.2c0.4,0,0.7,1.6,1.1,1.6s0.7-1.8,1.1-1.8c0.4,0,0.7,3.1,1.1,3.1c0.4,0,0.7-2.8,1.1-2.8
			c0.4,0,0.7,1.6,1.1,1.6c0.4,0,0.7-0.8,1.1-0.8c0.4,0,0.7,1.9,1.1,1.9c0.4,0,0.7-2.1,1-2.1c0.4,0,0.7,2.1,1.1,2.1
			c0.4,0,0.7-2.8,1-2.9c0.4,0,0.7,1.2,1.1,1.2c0.4,0,0.7-1.4,1-1.4c0.4,0,0.8,2.9,1.1,2.9c0.4,0,0.6-2.6,1-2.7
			c0.4,0,0.8,1.9,1.1,1.9c0.4,0,0.7-1.8,1-1.8c0.4,0,0.8,2.4,1.1,2.4c0.4,0,0.6-1.9,1-1.9c0.4,0,0.8,1.3,1.1,1.2
			c0.4,0,0.6-2.5,1-2.5c0.4,0,0.8,3.2,1.2,3.2c0.4,0,0.6-3.2,0.9-3.2c0.4,0,0.9,3.3,1.2,3.3c0.4,0,0.6-3,0.9-3
			c0.4,0,0.8,2.5,1.2,2.4c0.4,0,0.5-3.5,0.9-3.6c0.4,0,0.9,3.9,1.3,3.9c0.4,0,0.5-3.6,0.9-3.6c0.4,0,0.8,2,1.2,2
			c0.4,0,0.6-1.8,0.9-1.9c0.4,0,0.8,1.8,1.2,1.7c0.4,0,0.7-0.9,1-0.9c0.4,0,0.8,0.6,1.1,0.6c0.4,0,0.6-1.6,0.9-1.6
			c0.4,0,0.9,2.3,1.3,2.3c0.4,0,0.5-3,0.8-3c0.4,0,0.9,2.2,1.2,2.1c0.4,0,0.6-1,1-1.1c0.4,0,0.9,1.7,1.2,1.6c0.4,0,0.4-3.3,0.8-3.4
			c0.4,0,0.9,2.1,1.3,2.1c0.4,0,0.6-1.6,0.9-1.7c0.4,0,1,2.5,1.3,2.4c0.4,0,0.6-1.6,0.9-1.6c0.4,0,0.8,0.9,1.2,0.8
			c0.4,0,0.5-2,0.8-2c0.4,0,1,2.1,1.3,2c0.4,0,0.6-1.3,0.9-1.4c0.4,0,1,2.2,1.3,2.1c0.4,0,0.3-3.6,0.6-3.6c0.4,0,1.2,3.4,1.5,3.4
			c0.4,0,0.3-3.5,0.6-3.5c0.4,0,1,1.8,1.3,1.8c0.4,0,0.6-1,0.9-1c0.4-0.1,1,2.1,1.4,2.1c0.4-0.1,0.4-2.1,0.8-2.1
			c0.4-0.1,0.9,1,1.2,0.9c0.4-0.1,0.4-2,0.8-2.1c0.4-0.1,0.9,1.4,1.3,1.3c0.4-0.1,0.4-1.9,0.7-2c0.4-0.1,1.1,2,1.4,2
			c0.4-0.1,0.5-1.4,0.8-1.4c0.4-0.1,1,1.3,1.3,1.3c0.4-0.1,0.4-1.8,0.8-1.8c0.4-0.1,0.9,1.1,1.3,1c0.4-0.1,0.4-1.6,0.8-1.7
			c0.4-0.1,1.2,2.5,1.6,2.5c0.4-0.1,0.3-2.3,0.6-2.4c0.4-0.1,1.2,2.1,1.5,2c0.3-0.1-0.1-3.8,0.3-3.9c0.3-0.1,1.4,2.9,1.7,2.8
			c0.3-0.1,0.2-2.2,0.6-2.3c0.3-0.1,1.2,1.8,1.5,1.7c0.3-0.1,0.1-2.5,0.5-2.6c0.3-0.1,1.4,2.6,1.7,2.5c0.3-0.1,0.3-1.8,0.6-1.9
			c0.3-0.1,1,1,1.3,0.9c0.3-0.1,0.2-2,0.5-2.1c0.3-0.1,1.3,1.8,1.6,1.7c0.3-0.1,0.1-2.2,0.4-2.3c0.3-0.1,1,0.9,1.4,0.8
			c0.3-0.1,0.1-2.1,0.4-2.2c0.3-0.1,1.3,1.8,1.7,1.7c0.3-0.1,0-2.2,0.3-2.3c0.3-0.1,1.6,2.4,1.9,2.2c0.3-0.1-0.5-3.3-0.1-3.4
			c0.3-0.1,1.7,2.3,2,2.2c0.3-0.1,0.1-1.7,0.4-1.8c0.3-0.1,1.3,1.1,1.6,1c0.3-0.1-0.4-2.7-0.1-2.8c0.3-0.2,2,2.5,2.3,2.3
			c0.3-0.2-0.2-2,0.1-2.2c0.3-0.2,1.6,1.4,1.9,1.2c0.3-0.2-0.5-2.4-0.2-2.5c0.3-0.2,2.2,2.1,2.5,1.9c0.3-0.2-1.2-3-0.9-3.2
			c0.3-0.2,1.9,1.3,2.1,1c0.3-0.2-1.3-2.5-1-2.8c0.3-0.2,2.6,1.6,2.8,1.4c0.2-0.3-1.8-2.4-1.6-2.7c0.2-0.3,3.5,1.5,3.7,1.2
			c0.2-0.3-2.9-2.2-2.8-2.6c0.1-0.3,3.1,0.2,3.2-0.1C289.6,246.2,287.9,245.6,287.9,245.3z"/>
	</g>
</g>
<g id="belly">
	<ellipse fill="#FFFFFF" cx="186.9" cy="384.3" rx="10.4" ry="3.5"/>
	<path fill="none" stroke="#FFFFFF" stroke-linecap="round" stroke-linejoin="round" stroke-miterlimit="10" d="M179.3,391.8
		c0,0,3.9,2.5,8.6,2.5c2.4,0,4.9-1.3,7.4-2.5"/>
</g>
<g id="head">
	<path fill="#1F4216" d="M288.1,245.2c0,0,52.8-2.3,69-26s2-61.5-3.5-83.3s-7-37.4-32.3-49.7c-3.3-1.6-8.6-3.7-8.6-3.7
		s0.8-8.3-1.5-12.5c-3.8-7.1-8.5-9.4-8.5-9.4s6.8-7.9,6.8-12.9s-4.3-17.3-17.3-17.3s-16,14.8-16,14.8l-3.1-0.3
		c-0.1-21.5-16.7-21.3-16.7-21.3c-8.7-0.3-13.5,5-13.5,5s-6-10.8-16.3-11s-13.3,5-13.3,5c-1.8-7-8.5-12.5-15-12.8
		c-7.2-0.3-13.5,1.5-16.3,7.8c-3.7,8.2,0.8,18.8,0.8,18.8l-4.8,1.5c0-4-1.3-19-17.8-19s-15.8,21-15.8,21H140c1-17.8-7-27.8-21.1-28
		S97.3,25.3,97.3,25.3s-3.3-5.8-14-5.3c-19.2,0.9-18,21-18,21c-24.5-0.2-24.5,24.7-24.5,24.7C40.5,75.5,53.3,86,53.3,86
		C27.8,97.8,26.5,114,21,135.8S1.3,195.3,17.5,219s69,26,69,26L288.1,245.2z"/>
</g>
<g id="eyes">
	<g id="eye23">
		<circle fill="#FFFFFF" cx="288.1" cy="78.9" r="16.2"/>
	</g>
	<g id="eye1">
		<circle fill="#FFFFFF" cx="83.3" cy="35.5" r="12.8"/>
	</g>
	<g id="eye8">
		<circle fill="#FFFFFF" cx="62.8" cy="63.8" r="16.8"/>
	</g>
	<g id="eye3">
		<circle fill="#FFFFFF" cx="162" cy="36.5" r="11.3"/>
	</g>
	<g id="eye4">
		<circle fill="#FFFFFF" cx="198.5" cy="23.8" r="11.8"/>
	</g>
	<g id="eye5">
		<circle fill="#FFFFFF" cx="224.4" cy="35.4" r="12.6"/>
	</g>
	<g id="eye12">
		<circle fill="#FFFFFF" cx="185" cy="58.8" r="16.8"/>
	</g>
	<g id="eye19">
		<circle fill="#FFFFFF" cx="162.9" cy="94.9" r="16.9"/>
	</g>
	<g id="eye18">
		<circle fill="#FFFFFF" cx="124.9" cy="101.4" r="16.8"/>
	</g>
	<g id="eye16">
		<circle fill="#FFFFFF" cx="90.4" cy="100.4" r="10.1"/>
	</g>
	<g>
		<ellipse fill="#1F4216" cx="89.4" cy="73.9" rx="21.8" ry="20.8"/>
	</g>
	<g id="eye9">
		<circle fill="#FFFFFF" cx="86.5" cy="73" r="17"/>
	</g>
	<g>
		<ellipse fill="#1F4216" cx="164" cy="64.1" rx="9.5" ry="10.4"/>
	</g>
	<g id="eye11">
		<circle fill="#FFFFFF" cx="163.3" cy="65.8" r="8.8"/>
	</g>
	<g>
		<ellipse fill="#1F4216" cx="114.8" cy="35.4" rx="19.8" ry="16.6"/>
	</g>
	<g id="eye2">
		<circle fill="#FFFFFF" cx="118.9" cy="34.4" r="16.6"/>
	</g>
	<g>
		<ellipse fill="#1F4216" cx="139.4" cy="61.8" rx="21.4" ry="20.1"/>
	</g>
	<g id="eye10">
		<circle fill="#FFFFFF" cx="141.7" cy="60.7" r="16.6"/>
	</g>
	<g id="eye20">
		<circle fill="#FFFFFF" cx="208.5" cy="99.4" r="16.9"/>
	</g>
	<g>
		<ellipse fill="#1F4216" cx="275.5" cy="65" rx="15.5" ry="16.1"/>
	</g>
	<g id="eye15">
		<circle fill="#FFFFFF" cx="273.2" cy="62.2" r="13.3"/>
	</g>
	<g>
		<ellipse fill="#1F4216" cx="257.7" cy="43" rx="14.7" ry="15.5"/>
	</g>
	<g id="eye6">
		<circle fill="#FFFFFF" cx="255.5" cy="40" r="12.5"/>
	</g>
	<g>
		<ellipse fill="#1F4216" cx="238.4" cy="63.7" rx="19.9" ry="18.6"/>
	</g>
	<g id="eye14">
		<circle fill="#FFFFFF" cx="235.2" cy="65.7" r="16.6"/>
	</g>
	<g>
		<ellipse fill="#1F4217" cx="216.7" cy="63.5" rx="12.6" ry="12.8"/>
	</g>
	<g id="eye13">
		<circle fill="#FFFFFF" cx="216.6" cy="64" r="11.5"/>
	</g>
	<g>
		<ellipse fill="#1F4216" cx="236.4" cy="89.9" rx="14.3" ry="13.8"/>
	</g>
	<g id="eye21">
		<circle fill="#FFFFFF" cx="239.4" cy="92" r="11.4"/>
	</g>
	<g>
		<ellipse fill="#1F4216" cx="264.6" cy="98.7" rx="21.5" ry="17.8"/>
	</g>
	<g id="eye22">
		<circle fill="#FFFFFF" cx="266.8" cy="99.5" r="17"/>
	</g>
	<g>
		<ellipse fill="#1F4216" cx="289.8" cy="47.4" rx="12" ry="11.6"/>
	</g>
	<g id="eye7">
		<circle fill="#FFFFFF" cx="290.7" cy="46.9" r="11.1"/>
	</g>
</g>
<g id="mouth">
	<g>
		<path fill="#FFFFFF" d="M303.7,124.5c11.7,0,14.7,12.4,14.8,12.9l0,0.1l0,0.1l16.5,60.9c0.2,1,2.8,13.8-14.9,18.7
			c-20.2,5.5-85.3,15.6-131.1,15.6c-0.6,0-1.1,0-1.7,0c-0.6,0-1.1,0-1.7,0c-45.8,0-110.9-10.1-131.1-15.6
			c-17.4-4.7-15.3-17.1-14.9-18.7l16.5-60.9l0-0.1l0-0.1c0,0,0.8-3.3,3-6.6c2.9-4.2,6.8-6.3,11.8-6.3c1.3,0,2.8,0.2,4.3,0.5
			c10.2,2.1,63.7,12.6,110.3,12.6c0.6,0,1.2,0,1.8,0c0.6,0,1.2,0,1.8,0c46.6,0,100.1-10.5,110.3-12.6
			C300.9,124.6,302.3,124.5,303.7,124.5 M303.7,120.5c-1.6,0-3.2,0.2-5.1,0.5c-19.2,3.9-67.4,12.5-109.5,12.5c-0.6,0-1.2,0-1.8,0
			c-0.6,0-1.2,0-1.8,0c-42.1,0-90.3-8.6-109.5-12.5c-1.8-0.4-3.5-0.5-5.1-0.5c-15.2,0-18.7,16-18.7,16l-16.5,61
			c0,0-4.2,17.5,17.8,23.5c21.7,5.9,86.9,15.8,132.1,15.8c0.6,0,1.1,0,1.7,0c0.6,0,1.1,0,1.7,0c45.2,0,110.4-9.8,132.1-15.8
			c22-6,17.8-23.5,17.8-23.5l-16.5-61C322.4,136.5,318.9,120.5,303.7,120.5L303.7,120.5z"/>
	</g>
	<g id="teath">
		<path fill="#FFFFFF" d="M305.3,123.5l-72.1,10l-45.7,1.3l-45.7-1.3l-72.1-10l-6.1,1.5l-2.9,3.7l15.3,15l10.8-9.5L95,161l6.8-24.3
			c0,0,2.3,10,11,10s12.1-9.3,12.1-9.3l6.9,6.3l9.9-8.8l8.6,8.3l8-6.5l3.5,0.3l6.5,6.5l7-6.5l4.5,0.3l7.5,6l0.1-0.1l0.1,0.1l7.5-6
			l4.5-0.3l7,6.5l6.5-6.5l3.5-0.3l8,6.5l8.6-8.3l9.9,8.8l6.9-6.3c0,0,3.3,9.3,12.1,9.3c8.8,0,11-10,11-10l6.8,24.3l8.5-26.8
			l10.8,9.5l15.3-15l-3.3-3.9L305.3,123.5z"/>
		<path fill="#FFFFFF" d="M307.2,210.7l-10,10.3l-11-10.3l-9,8.7c0,0-4.7-12.7-13.3-12.3c-8.7,0.3-10,7-10,7l-11.3-39.3l-13.5,43
			l-8.5-7L209.2,221l-11-10.3L187.6,221l-10.8-10v0.1l-11,10.3l-11.3-10.3l-8.5,7l-13.5-43l-11.3,39.3c0,0-1.3-6.7-10-7
			c-8.7-0.3-13.3,12.3-13.3,12.3l-9-8.7l-11,10.3l-10-10.3l-7.3,7.7l14,4.7l36.7,5l45.5,4.8h27.6h37.2l42.3-5.2l36.7-5l14.7-4
			L307.2,210.7z"/>
	</g>
</g>
</svg>
